#VRML V2.0 utf8
# 3D model generated by easyeda2kicad.py (https://github.com/uPesy/easyeda2kicad.py)

Shape{
    appearance Appearance {
        material  Material 	{
            diffuseColor 0.25098039215686274 0.25098039215686274 0.25098039215686274
            specularColor 0.12549019607843137 0.12549019607843137 0.12549019607843137
            ambientIntensity 0.2
            transparency 0
            shininess 0.5
        }
    }
    geometry IndexedFaceSet {
        ccw TRUE
        solid FALSE
        coord DEF co Coordinate {
            point [
                0.0394 0.0984 0.1102, 0.0394 0.0984 0.0079, -0.0394 0.0984 0.1102, -0.0394 0.0984 0.0079, -0.1181 0.0984 0.1102, -0.1181 0.0984 0.0079, -0.1299 0.0984 0.1102, -0.1299 0.0984 0.0079, 0.1299 0.0984 0.1102, 0.1299 0.0984 0.0079, 0.1181 0.0984 0.1102, 0.1181 0.0984 0.0079, 0.0394 -0.0984 0.0079, 0.0394 -0.0984 0.1102, -0.0394 -0.0984 0.0079, -0.0394 -0.0984 0.1102, 0.1299 -0.0984 0.0079, 0.1299 -0.0984 0.1102, 0.1181 -0.0984 0.0079, 0.1181 -0.0984 0.1102, -0.1181 -0.0984 0.0079, -0.1181 -0.0984 0.1102, -0.1299 -0.0984 0.0079, -0.1299 -0.0984 0.1102, -0.0469 -0.0674 0.0, -0.0524 -0.0613 0.0, -0.0083 -0.01 0.0, -0.0083 -0.0906 0.0, -0.0394 -0.0906 0.0, -0.0402 -0.0824 0.0, -0.0984 -0.0565 0.0, -0.1051 -0.0613 0.0, -0.1299 -0.01 0.0, -0.0428 -0.0745 0.0, -0.1106 -0.0674 0.0, -0.1147 -0.0745 0.0, -0.1299 -0.0906 0.0, -0.1172 -0.0824 0.0, -0.1181 -0.0906 0.0, -0.0591 -0.0565 0.0, -0.0666 -0.0531 0.0, -0.0746 -0.0514 0.0, -0.0829 -0.0514 0.0, -0.0909 -0.0531 0.0, 0.1147 -0.0745 0.0, 0.1299 -0.01 0.0, 0.1172 -0.0824 0.0, 0.1299 -0.0906 0.0, 0.1181 -0.0906 0.0, 0.1106 -0.0674 0.0, 0.1051 -0.0613 0.0, 0.0984 -0.0565 0.0, 0.0469 -0.0674 0.0, 0.0428 -0.0745 0.0, 0.0909 -0.0531 0.0, 0.0829 -0.0514 0.0, 0.0146 -0.01 0.0, 0.0746 -0.0514 0.0, 0.0402 -0.0824 0.0, 0.0394 -0.0906 0.0, 0.0666 -0.0531 0.0, 0.0591 -0.0565 0.0, 0.0134 -0.0101 0.0, 0.0524 -0.0613 0.0, 0.0129 -0.0101 0.0, 0.0121 -0.01 0.0, -0.0083 0.0906 0.0, -0.0064 -0.0077 0.0, -0.0064 -0.0099 0.0, 0.0042 -0.0099 0.0, -0.0059 0.0076 0.0, 0.0015 0.0076 0.0, 0.0015 0.0011 0.0, 0.008 -0.0089 0.0, 0.008 -0.0067 0.0, 0.0042 0.0098 0.0, 0.0101 -0.0097 0.0, 0.0015 -0.001 0.0, 0.0015 -0.0077 0.0, -0.0054 -0.001 0.0, -0.0054 0.0011 0.0, 0.0344 0.0098 0.0, 0.0746 0.0514 0.0, 0.0344 -0.0099 0.0, 0.0829 0.0514 0.0, 0.0428 0.0745 0.0, 0.0469 0.0674 0.0, 0.0318 0.0098 0.0, -0.0059 0.0098 0.0, 0.0394 0.0906 0.0, 0.0402 0.0824 0.0, 0.0216 0.0046 0.0, 0.0205 0.0064 0.0, 0.0146 0.0076 0.0, 0.016 0.0071 0.0, 0.0084 -0.0069 0.0, 0.0174 0.0062 0.0, 0.0186 0.0049 0.0, 0.02 -0.0003 0.0, 0.0198 -0.0024 0.0, 0.0193 -0.0041 0.0, 0.0149 -0.0078 0.0, 0.0131 -0.008 0.0, 0.0163 -0.0072 0.0, 0.0175 -0.0064 0.0, 0.0185 -0.0055 0.0, 0.0105 -0.0077 0.0, 0.0194 0.0034 0.0, 0.0199 0.0013 0.0, 0.0909 0.0531 0.0, 0.0984 0.0565 0.0, 0.1051 0.0613 0.0, 0.0524 0.0613 0.0, 0.0591 0.0565 0.0, 0.0666 0.0531 0.0, 0.0187 0.0082 0.0, 0.0178 -0.0092 0.0, 0.0194 -0.0082 0.0, 0.0243 -0.0099 0.0, 0.0208 -0.0067 0.0, 0.0243 -0.0077 0.0, 0.0219 -0.0048 0.0, 0.0318 -0.0077 0.0, 0.0159 -0.0099 0.0, 0.0225 -0.0027 0.0, 0.0227 -0.0004 0.0, 0.0224 0.0024 0.0, 0.0168 0.0092 0.0, 0.0146 0.0099 0.0, 0.0126 0.01 0.0, 0.1106 0.0674 0.0, 0.1147 0.0745 0.0, 0.1299 0.0906 0.0, 0.1172 0.0824 0.0, 0.1181 0.0906 0.0, 0.0103 0.0099 0.0, 0.008 0.0092 0.0, 0.008 0.0066 0.0, 0.0102 0.0076 0.0, 0.0126 0.0079 0.0, -0.0275 -0.0099 0.0, -0.0251 -0.0045 0.0, -0.024 -0.0063 0.0, -0.0453 -0.0099 0.0, -0.0424 -0.0099 0.0, -0.0223 -0.0078 0.0, -0.0203 -0.009 0.0, -0.018 -0.0097 0.0, -0.0156 -0.0099 0.0, -0.0102 -0.0099 0.0, -0.0102 0.0098 0.0, -0.0158 0.0098 0.0, -0.0231 0.0072 0.0, -0.0245 0.0057 0.0, -0.035 0.0098 0.0, -0.0254 0.004 0.0, -0.0186 0.0095 0.0, -0.0209 0.0087 0.0, -0.0231 0.0072 0.0, -0.0394 0.0906 0.0, -0.0402 0.0824 0.0, -0.0428 0.0745 0.0, -0.0304 -0.0099 0.0, -0.0323 -0.0044 0.0, -0.0404 -0.0044 0.0, -0.0259 0.002 0.0, -0.0261 0.0002 0.0, -0.0258 -0.0024 0.0, -0.0469 0.0674 0.0, -0.0524 0.0613 0.0, -0.1147 0.0745 0.0, -0.1172 0.0824 0.0, -0.1299 0.0906 0.0, -0.1181 0.0906 0.0, -0.1106 0.0674 0.0, -0.1051 0.0613 0.0, -0.0984 0.0565 0.0, -0.0909 0.0531 0.0, -0.0829 0.0514 0.0, -0.0746 0.0514 0.0, -0.0376 0.0098 0.0, -0.0666 0.0531 0.0, -0.0591 0.0565 0.0, 0.1299 0.0906 0.1181, 0.1181 0.0906 0.1181, 0.1172 0.0824 0.1181, 0.1299 -0.0906 0.1181, 0.1147 0.0745 0.1181, 0.1106 0.0674 0.1181, -0.1299 -0.0906 0.1181, -0.1181 -0.0906 0.1181, -0.1172 -0.0824 0.1181, -0.0746 -0.0514 0.1181, -0.0666 -0.0531 0.1181, -0.0746 0.0514 0.1181, 0.1051 -0.0613 0.1181, 0.1106 -0.0674 0.1181, 0.1147 -0.0745 0.1181, 0.1172 -0.0824 0.1181, 0.1181 -0.0906 0.1181, -0.1147 -0.0745 0.1181, -0.1147 0.0745 0.1181, -0.1299 0.0906 0.1181, -0.1172 0.0824 0.1181, -0.1181 0.0906 0.1181, -0.0909 -0.0531 0.1181, -0.0829 -0.0514 0.1181, -0.0909 0.0531 0.1181, -0.1106 -0.0674 0.1181, -0.1051 -0.0613 0.1181, -0.1106 0.0674 0.1181, -0.1051 0.0613 0.1181, -0.0591 0.0565 0.1181, 0.0524 -0.0613 0.1181, -0.0524 0.0613 0.1181, -0.0469 0.0674 0.1181, -0.0666 0.0531 0.1181, -0.0591 -0.0565 0.1181, 0.0402 -0.0824 0.1181, -0.0524 -0.0613 0.1181, -0.0469 -0.0674 0.1181, -0.0984 -0.0565 0.1181, 0.0591 -0.0565 0.1181, 0.0524 0.0613 0.1181, 0.0666 -0.0531 0.1181, -0.0984 0.0565 0.1181, 0.0746 -0.0514 0.1181, 0.0829 -0.0514 0.1181, 0.0829 0.0514 0.1181, 0.0909 -0.0531 0.1181, 0.0909 0.0531 0.1181, 0.0984 -0.0565 0.1181, 0.0984 0.0565 0.1181, 0.1051 0.0613 0.1181, 0.0469 0.0674 0.1181, 0.0428 0.0745 0.1181, 0.0428 -0.0745 0.1181, 0.0469 -0.0674 0.1181, -0.0829 0.0514 0.1181, 0.0746 0.0514 0.1181, 0.0666 0.0531 0.1181, 0.0591 0.0565 0.1181, 0.0394 0.0906 0.1181, -0.0394 0.0906 0.1181, 0.0402 0.0824 0.1181, -0.0402 0.0824 0.1181, -0.0428 0.0745 0.1181, -0.0394 -0.0906 0.1181, 0.0394 -0.0906 0.1181, -0.0402 -0.0824 0.1181, -0.0428 -0.0745 0.1181, 0.1378 -0.0906 0.0079, 0.1378 0.0906 0.0079, 0.1378 -0.0906 0.1102, 0.1378 0.0906 0.1102, -0.1378 0.0906 0.0079, -0.1378 -0.0906 0.0079, -0.1378 0.0906 0.1102, -0.1378 -0.0906 0.1102, -0.1378 -0.0906 0.1102
            ]
        }
        coordIndex [
            0,1,2,-1,2,1,3,-1,4,5,6,-1,6,5,7,-1,8,9,10,-1,10,9,11,-1,12,13,14,-1,14,13,15,-1,16,17,18,-1,18,17,19,-1,20,21,22,-1,22,21,23,-1,24,25,26,-1,27,28,29,-1,30,31,32,-1,27,29,26,-1,26,29,33,-1,26,33,24,-1,31,34,32,-1,32,34,35,-1,32,35,36,-1,36,35,37,-1,36,37,38,-1,25,39,26,-1,26,39,40,-1,26,40,41,-1,41,42,32,-1,32,42,43,-1,32,43,30,-1,44,45,46,-1,46,45,47,-1,46,47,48,-1,44,49,45,-1,45,49,50,-1,45,50,51,-1,26,52,53,-1,51,54,45,-1,45,54,55,-1,45,55,56,-1,56,55,57,-1,26,53,27,-1,27,53,58,-1,27,58,59,-1,57,60,56,-1,56,60,61,-1,56,61,62,-1,62,61,63,-1,62,63,64,-1,64,63,65,-1,66,67,26,-1,26,67,68,-1,26,68,69,-1,70,71,72,-1,73,69,74,-1,74,69,75,-1,73,76,69,-1,69,76,65,-1,69,65,26,-1,26,65,63,-1,26,63,52,-1,77,78,79,-1,79,78,67,-1,79,67,80,-1,81,82,83,-1,83,82,84,-1,85,86,87,-1,72,80,70,-1,70,80,67,-1,70,67,88,-1,88,67,66,-1,88,66,75,-1,66,89,90,-1,91,92,87,-1,93,94,95,-1,95,94,96,-1,95,96,97,-1,98,99,95,-1,95,99,100,-1,101,102,103,-1,103,102,104,-1,100,105,95,-1,95,105,104,-1,95,104,106,-1,106,104,102,-1,97,107,95,-1,95,107,108,-1,95,108,98,-1,84,109,83,-1,83,109,110,-1,83,110,111,-1,86,112,87,-1,87,112,113,-1,87,113,81,-1,81,113,114,-1,81,114,82,-1,92,115,87,-1,87,115,66,-1,87,66,85,-1,85,66,90,-1,116,117,118,-1,118,117,119,-1,118,119,120,-1,120,119,121,-1,120,121,122,-1,111,45,83,-1,83,45,56,-1,83,56,118,-1,118,56,123,-1,118,123,116,-1,121,124,122,-1,122,124,125,-1,122,125,87,-1,87,125,126,-1,87,126,91,-1,115,127,66,-1,66,127,128,-1,66,128,129,-1,111,130,45,-1,45,130,131,-1,45,131,132,-1,132,131,133,-1,132,133,134,-1,129,135,66,-1,66,135,136,-1,66,136,75,-1,75,136,137,-1,75,137,74,-1,74,137,138,-1,74,138,95,-1,95,138,139,-1,95,139,93,-1,140,141,142,-1,41,32,26,-1,26,32,143,-1,26,143,144,-1,142,145,140,-1,140,145,146,-1,140,146,147,-1,148,149,26,-1,26,149,150,-1,26,150,66,-1,66,150,151,-1,152,153,154,-1,154,153,155,-1,151,156,66,-1,66,156,157,-1,66,157,154,-1,154,157,158,-1,154,158,152,-1,159,66,160,-1,160,66,161,-1,147,148,140,-1,140,148,26,-1,140,26,162,-1,162,26,144,-1,162,144,163,-1,163,144,164,-1,155,165,154,-1,154,165,166,-1,154,166,140,-1,140,166,167,-1,140,167,141,-1,161,66,168,-1,168,66,154,-1,168,154,169,-1,170,32,171,-1,171,32,172,-1,171,172,173,-1,170,174,32,-1,32,174,175,-1,32,175,176,-1,176,177,32,-1,32,177,178,-1,32,178,143,-1,143,178,179,-1,143,179,180,-1,180,179,181,-1,180,181,154,-1,154,181,182,-1,154,182,169,-1,183,184,185,-1,183,185,186,-1,186,185,187,-1,186,187,188,-1,189,190,191,-1,192,193,194,-1,195,196,188,-1,188,196,197,-1,188,197,186,-1,186,197,198,-1,186,198,199,-1,191,200,189,-1,189,200,201,-1,189,201,202,-1,202,201,203,-1,202,203,204,-1,205,206,207,-1,200,208,201,-1,201,208,209,-1,201,209,210,-1,210,209,211,-1,212,213,214,-1,214,213,215,-1,194,193,216,-1,216,193,217,-1,216,217,212,-1,218,219,220,-1,205,207,221,-1,213,222,223,-1,223,222,224,-1,221,207,209,-1,209,207,225,-1,209,225,211,-1,226,227,228,-1,228,227,229,-1,228,229,230,-1,230,229,231,-1,230,231,232,-1,232,231,195,-1,232,195,233,-1,233,195,188,-1,213,223,215,-1,215,223,234,-1,215,234,235,-1,219,218,217,-1,217,218,236,-1,217,236,212,-1,212,236,237,-1,212,237,213,-1,192,194,206,-1,206,194,238,-1,206,238,207,-1,228,239,226,-1,226,239,240,-1,226,240,224,-1,224,240,241,-1,224,241,223,-1,242,243,244,-1,244,243,245,-1,244,245,235,-1,235,245,246,-1,235,246,215,-1,247,248,249,-1,249,248,218,-1,249,218,250,-1,250,218,220,-1,251,252,253,-1,253,252,254,-1,255,256,257,-1,257,256,258,-1,
        ]
    }
}
Shape{
    appearance Appearance {
        material  Material 	{
            diffuseColor 0.8509803921568627 0.8509803921568627 0.8509803921568627
            specularColor 0.4235294117647059 0.4235294117647059 0.4235294117647059
            ambientIntensity 0.2
            transparency 0
            shininess 0.5
        }
    }
    geometry IndexedFaceSet {
        ccw TRUE
        solid FALSE
        coord DEF co Coordinate {
            point [
                -0.0394 -0.0906 0.122, -0.0394 -0.0906 0.1181, -0.0402 -0.0824 0.1181, -0.0402 -0.0824 0.122, -0.0428 -0.0745 0.1181, -0.0428 -0.0745 0.122, -0.0469 -0.0674 0.1181, -0.0469 -0.0674 0.122, -0.0524 -0.0613 0.1181, -0.0524 -0.0613 0.122, -0.0591 -0.0565 0.1181, -0.0591 -0.0565 0.122, -0.0666 -0.0531 0.1181, -0.0666 -0.0531 0.122, -0.0746 -0.0514 0.1181, -0.0746 -0.0514 0.122, -0.0829 -0.0514 0.1181, -0.0829 -0.0514 0.122, -0.0909 -0.0531 0.1181, -0.0909 -0.0531 0.122, -0.0984 -0.0565 0.1181, -0.0984 -0.0565 0.122, -0.1051 -0.0613 0.1181, -0.1051 -0.0613 0.122, -0.1106 -0.0674 0.1181, -0.1106 -0.0674 0.122, -0.1147 -0.0745 0.1181, -0.1147 -0.0745 0.122, -0.1172 -0.0824 0.1181, -0.1172 -0.0824 0.122, -0.1181 -0.0906 0.1181, -0.1181 -0.0906 0.122, -0.1181 -0.0906 0.0, -0.1181 -0.0906 -0.0039, -0.1181 -0.0923 0.0002, -0.1181 -0.0936 -0.0035, -0.1181 -0.094 0.0008, -0.1181 -0.0965 -0.0024, -0.1181 -0.0955 0.0017, -0.1181 -0.0989 -0.0005, -0.1181 -0.0936 0.1216, -0.1181 -0.0926 0.1178, -0.1181 -0.0965 0.1205, -0.1181 -0.0945 0.1171, -0.1181 -0.0989 0.1186, -0.1181 -0.0961 0.1158, -0.1181 -0.1008 0.1161, -0.1181 -0.0974 0.1142, -0.1181 -0.102 0.1133, -0.1181 -0.0982 0.1123, -0.1181 -0.1024 0.1102, -0.1181 -0.0984 0.1102, -0.1181 -0.1024 0.0079, -0.1181 -0.0984 0.0079, -0.1181 -0.102 0.0048, -0.1181 -0.0982 0.0061, -0.1181 -0.1008 0.002, -0.1181 -0.0976 0.0045, -0.1181 -0.0967 0.003, -0.0394 -0.0926 0.1178, -0.0394 -0.0936 0.1216, -0.0394 -0.0945 0.1171, -0.0394 -0.0965 0.1205, -0.0394 -0.0961 0.1158, -0.0394 -0.0989 0.1186, -0.0394 -0.0974 0.1142, -0.0394 -0.1008 0.1161, -0.0394 -0.0982 0.1123, -0.0394 -0.102 0.1133, -0.0394 -0.0984 0.1102, -0.0394 -0.1024 0.1102, -0.0394 -0.0984 0.0079, -0.0394 -0.1024 0.0079, -0.0394 -0.0982 0.0058, -0.0394 -0.102 0.0048, -0.0394 -0.0974 0.0039, -0.0394 -0.1008 0.002, -0.0394 -0.0961 0.0023, -0.0394 -0.0989 -0.0005, -0.0394 -0.0945 0.0011, -0.0394 -0.0965 -0.0024, -0.0394 -0.0926 0.0003, -0.0394 -0.0936 -0.0035, -0.0394 -0.0906 0.0, -0.0394 -0.0906 -0.0039, -0.1181 0.0906 0.122, -0.1181 0.0906 0.1181, -0.1172 0.0824 0.1181, -0.1172 0.0824 0.122, -0.1147 0.0745 0.1181, -0.1147 0.0745 0.122, -0.1106 0.0674 0.1181, -0.1106 0.0674 0.122, -0.1051 0.0613 0.1181, -0.1051 0.0613 0.122, -0.0984 0.0565 0.1181, -0.0984 0.0565 0.122, -0.0909 0.0531 0.1181, -0.0909 0.0531 0.122, -0.0829 0.0514 0.1181, -0.0829 0.0514 0.122, -0.0746 0.0514 0.1181, -0.0746 0.0514 0.122, -0.0666 0.0531 0.1181, -0.0666 0.0531 0.122, -0.0591 0.0565 0.1181, -0.0591 0.0565 0.122, -0.0524 0.0613 0.1181, -0.0524 0.0613 0.122, -0.0469 0.0674 0.1181, -0.0469 0.0674 0.122, -0.0428 0.0745 0.1181, -0.0428 0.0745 0.122, -0.0402 0.0824 0.1181, -0.0402 0.0824 0.122, -0.0394 0.0906 0.1181, -0.0394 0.0906 0.122, -0.0394 0.0906 0.0, -0.0394 0.0906 -0.0039, -0.0394 0.0926 0.0003, -0.0394 0.0936 -0.0035, -0.0394 0.0945 0.0011, -0.0394 0.0965 -0.0024, -0.0394 0.0961 0.0023, -0.0394 0.0989 -0.0005, -0.0394 0.0974 0.0039, -0.0394 0.1008 0.002, -0.0394 0.0982 0.0058, -0.0394 0.102 0.0048, -0.0394 0.0984 0.0079, -0.0394 0.1024 0.0079, -0.0394 0.0984 0.1102, -0.0394 0.1024 0.1102, -0.0394 0.0982 0.1123, -0.0394 0.102 0.1133, -0.0394 0.0974 0.1142, -0.0394 0.1008 0.1161, -0.0394 0.0961 0.1158, -0.0394 0.0989 0.1186, -0.0394 0.0945 0.1171, -0.0394 0.0965 0.1205, -0.0394 0.0926 0.1178, -0.0394 0.0936 0.1216, -0.1181 0.0906 -0.0039, -0.1181 0.0906 0.0, -0.1181 0.0936 -0.0035, -0.1181 0.0922 0.0002, -0.1181 0.0965 -0.0024, -0.1181 0.0939 0.0008, -0.1181 0.0989 -0.0005, -0.1181 0.0954 0.0017, -0.1181 0.0967 0.0029, -0.1181 0.1008 0.002, -0.1181 0.0976 0.0044, -0.1181 0.102 0.0048, -0.1181 0.0982 0.0061, -0.1181 0.1024 0.0079, -0.1181 0.0984 0.0079, -0.1181 0.1024 0.1102, -0.1181 0.0984 0.1102, -0.1181 0.102 0.1133, -0.1181 0.0982 0.112, -0.1181 0.1008 0.1161, -0.1181 0.0976 0.1137, -0.1181 0.0989 0.1186, -0.1181 0.0922 0.1179, -0.1181 0.0936 0.1216, -0.1181 0.0939 0.1174, -0.1181 0.0965 0.1205, -0.1181 0.0954 0.1164, -0.1181 0.0967 0.1152, 0.1181 0.0906 0.122, 0.1181 0.0906 0.1181, 0.1181 0.0936 0.1216, 0.1181 0.0922 0.1179, 0.1181 0.0965 0.1205, 0.1181 0.0939 0.1174, 0.1181 0.0989 0.1186, 0.1181 0.0906 0.0, 0.1181 0.0906 -0.0039, 0.1181 0.0922 0.0002, 0.1181 0.0936 -0.0035, 0.1181 0.0939 0.0008, 0.1181 0.0965 -0.0024, 0.1181 0.0954 0.0017, 0.1181 0.0989 -0.0005, 0.1181 0.0954 0.1164, 0.1181 0.0967 0.1152, 0.1181 0.1008 0.1161, 0.1181 0.0976 0.1137, 0.1181 0.102 0.1133, 0.1181 0.0982 0.112, 0.1181 0.1024 0.1102, 0.1181 0.0984 0.1102, 0.1181 0.1024 0.0079, 0.1181 0.0984 0.0079, 0.1181 0.102 0.0048, 0.1181 0.0982 0.0061, 0.1181 0.1008 0.002, 0.1181 0.0976 0.0044, 0.1181 0.0967 0.0029, 0.0394 0.0906 0.1181, 0.0394 0.0906 0.122, 0.0394 0.0926 0.1178, 0.0394 0.0936 0.1216, 0.0394 0.0945 0.1171, 0.0394 0.0965 0.1205, 0.0394 0.0961 0.1158, 0.0394 0.0989 0.1186, 0.0394 0.0974 0.1142, 0.0394 0.1008 0.1161, 0.0394 0.0982 0.1123, 0.0394 0.102 0.1133, 0.0394 0.0984 0.1102, 0.0394 0.1024 0.1102, 0.0394 0.0984 0.0079, 0.0394 0.1024 0.0079, 0.0394 0.0982 0.0058, 0.0394 0.102 0.0048, 0.0394 0.0974 0.0039, 0.0394 0.1008 0.002, 0.0394 0.0961 0.0023, 0.0394 0.0989 -0.0005, 0.0394 0.0945 0.0011, 0.0394 0.0965 -0.0024, 0.0394 0.0926 0.0003, 0.0394 0.0936 -0.0035, 0.0394 0.0906 0.0, 0.0394 0.0906 -0.0039, 0.0402 0.0824 0.1181, 0.0402 0.0824 0.122, 0.0428 0.0745 0.1181, 0.0428 0.0745 0.122, 0.0469 0.0674 0.1181, 0.0469 0.0674 0.122, 0.0524 0.0613 0.1181, 0.0524 0.0613 0.122, 0.0591 0.0565 0.1181, 0.0591 0.0565 0.122, 0.0666 0.0531 0.1181, 0.0666 0.0531 0.122, 0.0746 0.0514 0.1181, 0.0746 0.0514 0.122, 0.0829 0.0514 0.1181, 0.0829 0.0514 0.122, 0.0909 0.0531 0.1181, 0.0909 0.0531 0.122, 0.0984 0.0565 0.1181, 0.0984 0.0565 0.122, 0.1051 0.0613 0.1181, 0.1051 0.0613 0.122, 0.1106 0.0674 0.1181, 0.1106 0.0674 0.122, 0.1147 0.0745 0.1181, 0.1147 0.0745 0.122, 0.1172 0.0824 0.1181, 0.1172 0.0824 0.122, 0.1181 -0.0906 0.122, 0.1181 -0.0906 0.1181, 0.1172 -0.0824 0.1181, 0.1172 -0.0824 0.122, 0.1147 -0.0745 0.1181, 0.1147 -0.0745 0.122, 0.1106 -0.0674 0.1181, 0.1106 -0.0674 0.122, 0.1051 -0.0613 0.1181, 0.1051 -0.0613 0.122, 0.0984 -0.0565 0.1181, 0.0984 -0.0565 0.122, 0.0909 -0.0531 0.1181, 0.0909 -0.0531 0.122, 0.0829 -0.0514 0.1181, 0.0829 -0.0514 0.122, 0.0746 -0.0514 0.1181, 0.0746 -0.0514 0.122, 0.0666 -0.0531 0.1181, 0.0666 -0.0531 0.122, 0.0591 -0.0565 0.1181, 0.0591 -0.0565 0.122, 0.0524 -0.0613 0.1181, 0.0524 -0.0613 0.122, 0.0469 -0.0674 0.1181, 0.0469 -0.0674 0.122, 0.0428 -0.0745 0.1181, 0.0428 -0.0745 0.122, 0.0402 -0.0824 0.1181, 0.0402 -0.0824 0.122, 0.0394 -0.0906 0.1181, 0.0394 -0.0906 0.122, 0.0394 -0.0906 0.0, 0.0394 -0.0906 -0.0039, 0.0394 -0.0926 0.0003, 0.0394 -0.0936 -0.0035, 0.0394 -0.0945 0.0011, 0.0394 -0.0965 -0.0024, 0.0394 -0.0961 0.0023, 0.0394 -0.0989 -0.0005, 0.0394 -0.0974 0.0039, 0.0394 -0.1008 0.002, 0.0394 -0.0982 0.0058, 0.0394 -0.102 0.0048, 0.0394 -0.0984 0.0079, 0.0394 -0.1024 0.0079, 0.0394 -0.0984 0.1102, 0.0394 -0.1024 0.1102, 0.0394 -0.0982 0.1123, 0.0394 -0.102 0.1133, 0.0394 -0.0974 0.1142, 0.0394 -0.1008 0.1161, 0.0394 -0.0961 0.1158, 0.0394 -0.0989 0.1186, 0.0394 -0.0945 0.1171, 0.0394 -0.0965 0.1205, 0.0394 -0.0926 0.1178, 0.0394 -0.0936 0.1216, 0.1181 -0.0926 0.1178, 0.1181 -0.0936 0.1216, 0.1181 -0.0945 0.1171, 0.1181 -0.0965 0.1205, 0.1181 -0.0961 0.1158, 0.1181 -0.0989 0.1186, 0.1181 -0.0974 0.1142, 0.1181 -0.1008 0.1161, 0.1181 -0.0982 0.1123, 0.1181 -0.102 0.1133, 0.1181 -0.0984 0.1102, 0.1181 -0.1024 0.1102, 0.1181 -0.0984 0.0079, 0.1181 -0.1024 0.0079, 0.1181 -0.0982 0.0058, 0.1181 -0.102 0.0048, 0.1181 -0.0974 0.0039, 0.1181 -0.1008 0.002, 0.1181 -0.0961 0.0023, 0.1181 -0.0989 -0.0005, 0.1181 -0.0945 0.0011, 0.1181 -0.0965 -0.0024, 0.1181 -0.0926 0.0003, 0.1181 -0.0936 -0.0035, 0.1181 -0.0906 0.0, 0.1181 -0.0906 -0.0039, 0.1181 -0.0906 -0.0039
            ]
        }
        coordIndex [
            0,1,2,-1,0,2,3,-1,3,2,4,-1,3,4,5,-1,5,4,6,-1,5,6,7,-1,7,6,8,-1,7,8,9,-1,9,8,10,-1,9,10,11,-1,11,10,12,-1,11,12,13,-1,13,12,14,-1,13,14,15,-1,15,14,16,-1,15,16,17,-1,17,16,18,-1,17,18,19,-1,19,18,20,-1,19,20,21,-1,21,20,22,-1,21,22,23,-1,23,22,24,-1,23,24,25,-1,25,24,26,-1,25,26,27,-1,27,26,28,-1,27,28,29,-1,29,28,30,-1,29,30,31,-1,32,33,34,-1,34,33,35,-1,34,35,36,-1,36,35,37,-1,36,37,38,-1,38,37,39,-1,31,30,40,-1,40,30,41,-1,40,41,42,-1,42,41,43,-1,42,43,44,-1,44,43,45,-1,44,45,46,-1,46,45,47,-1,46,47,48,-1,48,47,49,-1,48,49,50,-1,50,49,51,-1,50,51,52,-1,52,51,53,-1,52,53,54,-1,54,53,55,-1,54,55,56,-1,56,55,57,-1,56,57,39,-1,39,57,58,-1,39,58,38,-1,1,0,59,-1,59,0,60,-1,59,60,61,-1,61,60,62,-1,61,62,63,-1,63,62,64,-1,63,64,65,-1,65,64,66,-1,65,66,67,-1,67,66,68,-1,67,68,69,-1,69,68,70,-1,69,70,71,-1,71,70,72,-1,71,72,73,-1,73,72,74,-1,73,74,75,-1,75,74,76,-1,75,76,77,-1,77,76,78,-1,77,78,79,-1,79,78,80,-1,79,80,81,-1,81,80,82,-1,81,82,83,-1,83,82,84,-1,31,0,3,-1,25,27,3,-1,3,27,29,-1,3,29,31,-1,9,21,7,-1,7,21,5,-1,5,21,3,-1,3,21,23,-1,3,23,25,-1,15,9,13,-1,13,9,11,-1,15,17,9,-1,9,17,19,-1,9,19,21,-1,85,86,87,-1,85,87,88,-1,88,87,89,-1,88,89,90,-1,90,89,91,-1,90,91,92,-1,92,91,93,-1,92,93,94,-1,94,93,95,-1,94,95,96,-1,96,95,97,-1,96,97,98,-1,98,97,99,-1,98,99,100,-1,100,99,101,-1,100,101,102,-1,102,101,103,-1,102,103,104,-1,104,103,105,-1,104,105,106,-1,106,105,107,-1,106,107,108,-1,108,107,109,-1,108,109,110,-1,110,109,111,-1,110,111,112,-1,112,111,113,-1,112,113,114,-1,114,113,115,-1,114,115,116,-1,117,118,119,-1,119,118,120,-1,119,120,121,-1,121,120,122,-1,121,122,123,-1,123,122,124,-1,123,124,125,-1,125,124,126,-1,125,126,127,-1,127,126,128,-1,127,128,129,-1,129,128,130,-1,129,130,131,-1,131,130,132,-1,131,132,133,-1,133,132,134,-1,133,134,135,-1,135,134,136,-1,135,136,137,-1,137,136,138,-1,137,138,139,-1,139,138,140,-1,139,140,141,-1,141,140,142,-1,141,142,115,-1,115,142,116,-1,143,144,145,-1,145,144,146,-1,145,146,147,-1,147,146,148,-1,147,148,149,-1,148,150,149,-1,149,150,151,-1,149,151,152,-1,152,151,153,-1,152,153,154,-1,154,153,155,-1,154,155,156,-1,156,155,157,-1,156,157,158,-1,158,157,159,-1,158,159,160,-1,160,159,161,-1,160,161,162,-1,162,161,163,-1,162,163,164,-1,86,85,165,-1,165,85,166,-1,165,166,167,-1,167,166,168,-1,167,168,169,-1,169,168,164,-1,169,164,170,-1,170,164,163,-1,116,85,88,-1,92,94,114,-1,114,94,96,-1,114,96,98,-1,116,88,114,-1,114,88,90,-1,114,90,92,-1,98,100,114,-1,114,100,102,-1,114,102,104,-1,104,106,114,-1,114,106,108,-1,114,108,112,-1,112,108,110,-1,171,172,173,-1,173,172,174,-1,173,174,175,-1,175,174,176,-1,175,176,177,-1,178,179,180,-1,180,179,181,-1,180,181,182,-1,182,181,183,-1,182,183,184,-1,184,183,185,-1,176,186,177,-1,177,186,187,-1,177,187,188,-1,188,187,189,-1,188,189,190,-1,190,189,191,-1,190,191,192,-1,192,191,193,-1,192,193,194,-1,194,193,195,-1,194,195,196,-1,196,195,197,-1,196,197,198,-1,198,197,199,-1,198,199,185,-1,185,199,200,-1,185,200,184,-1,201,202,203,-1,203,202,204,-1,203,204,205,-1,205,204,206,-1,205,206,207,-1,207,206,208,-1,207,208,209,-1,209,208,210,-1,209,210,211,-1,211,210,212,-1,211,212,213,-1,213,212,214,-1,213,214,215,-1,215,214,216,-1,215,216,217,-1,217,216,218,-1,217,218,219,-1,219,218,220,-1,219,220,221,-1,221,220,222,-1,221,222,223,-1,223,222,224,-1,223,224,225,-1,225,224,226,-1,225,226,227,-1,227,226,228,-1,202,201,229,-1,202,229,230,-1,230,229,231,-1,230,231,232,-1,232,231,233,-1,232,233,234,-1,234,233,235,-1,234,235,236,-1,236,235,237,-1,236,237,238,-1,238,237,239,-1,238,239,240,-1,240,239,241,-1,240,241,242,-1,242,241,243,-1,242,243,244,-1,244,243,245,-1,244,245,246,-1,246,245,247,-1,246,247,248,-1,248,247,249,-1,248,249,250,-1,250,249,251,-1,250,251,252,-1,252,251,253,-1,252,253,254,-1,254,253,255,-1,254,255,256,-1,256,255,172,-1,256,172,171,-1,254,256,230,-1,230,256,171,-1,230,171,202,-1,232,250,230,-1,230,250,252,-1,230,252,254,-1,232,234,250,-1,250,234,236,-1,250,236,238,-1,242,244,246,-1,238,240,250,-1,250,240,242,-1,250,242,248,-1,248,242,246,-1,257,258,259,-1,257,259,260,-1,260,259,261,-1,260,261,262,-1,262,261,263,-1,262,263,264,-1,264,263,265,-1,264,265,266,-1,266,265,267,-1,266,267,268,-1,268,267,269,-1,268,269,270,-1,270,269,271,-1,270,271,272,-1,272,271,273,-1,272,273,274,-1,274,273,275,-1,274,275,276,-1,276,275,277,-1,276,277,278,-1,278,277,279,-1,278,279,280,-1,280,279,281,-1,280,281,282,-1,282,281,283,-1,282,283,284,-1,284,283,285,-1,284,285,286,-1,286,285,287,-1,286,287,288,-1,289,290,291,-1,291,290,292,-1,291,292,293,-1,293,292,294,-1,293,294,295,-1,295,294,296,-1,295,296,297,-1,297,296,298,-1,297,298,299,-1,299,298,300,-1,299,300,301,-1,301,300,302,-1,301,302,303,-1,303,302,304,-1,303,304,305,-1,305,304,306,-1,305,306,307,-1,307,306,308,-1,307,308,309,-1,309,308,310,-1,309,310,311,-1,311,310,312,-1,311,312,313,-1,313,312,314,-1,313,314,287,-1,287,314,288,-1,258,257,315,-1,315,257,316,-1,315,316,317,-1,317,316,318,-1,317,318,319,-1,319,318,320,-1,319,320,321,-1,321,320,322,-1,321,322,323,-1,323,322,324,-1,323,324,325,-1,325,324,326,-1,325,326,327,-1,327,326,328,-1,327,328,329,-1,329,328,330,-1,329,330,331,-1,331,330,332,-1,331,332,333,-1,333,332,334,-1,333,334,335,-1,335,334,336,-1,335,336,337,-1,337,336,338,-1,337,338,339,-1,339,338,340,-1,288,257,286,-1,286,257,260,-1,260,262,286,-1,286,262,264,-1,286,264,284,-1,274,276,264,-1,264,276,278,-1,264,266,268,-1,278,280,264,-1,264,280,282,-1,264,282,284,-1,268,270,264,-1,264,270,272,-1,264,272,274,-1,
        ]
    }
}
Shape{
    appearance Appearance {
        material  Material 	{
            diffuseColor 1.0 1.0 1.0
            specularColor 0.5019607843137255 0.5019607843137255 0.5019607843137255
            ambientIntensity 0.2
            transparency 0
            shininess 0.5
        }
    }
    geometry IndexedFaceSet {
        ccw TRUE
        solid FALSE
        coord DEF co Coordinate {
            point [
                -0.0376 0.0098 0.0004, -0.0453 -0.0099 0.0004, -0.0376 0.0098 0.0, -0.0453 -0.0099 0.0, -0.0424 -0.0099 0.0004, -0.0424 -0.0099 0.0, -0.0404 -0.0044 0.0004, -0.0404 -0.0044 0.0, -0.0323 -0.0044 0.0004, -0.0323 -0.0044 0.0, -0.0304 -0.0099 0.0004, -0.0304 -0.0099 0.0, -0.0275 -0.0099 0.0004, -0.0275 -0.0099 0.0, -0.035 0.0098 0.0004, -0.035 0.0098 0.0, -0.0329 -0.0022 0.0004, -0.0395 -0.0022 0.0004, -0.0359 0.006 0.0004, -0.0361 0.0067 0.0004, -0.0362 0.0074 0.0004, -0.0363 0.0074 0.0004, -0.0364 0.0067 0.0004, -0.0366 0.006 0.0004, -0.0329 -0.0022 0.0, -0.0395 -0.0022 0.0, -0.0359 0.006 0.0, -0.0361 0.0067 -0.0, -0.0362 0.0074 0.0, -0.0363 0.0074 0.0, -0.0364 0.0067 0.0, -0.0366 0.006 0.0, -0.0156 -0.0099 0.0004, -0.0102 -0.0099 0.0004, -0.0156 -0.0099 0.0, -0.0102 -0.0099 0.0, -0.0102 0.0098 0.0004, -0.0102 0.0098 0.0, -0.0158 0.0098 0.0004, -0.0158 0.0098 0.0, -0.0261 0.0002 0.0004, -0.0261 0.0002 0.0, -0.0259 0.002 0.0, -0.0259 0.002 0.0004, -0.0254 0.004 0.0, -0.0254 0.004 0.0004, -0.0245 0.0057 0.0, -0.0245 0.0057 0.0004, -0.0231 0.0072 0.0, -0.0231 0.0072 0.0004, -0.0231 0.0072 0.0, -0.0231 0.0072 0.0004, -0.0209 0.0087 0.0, -0.0209 0.0087 0.0004, -0.0186 0.0095 0.0, -0.0186 0.0095 0.0004, -0.018 -0.0097 0.0, -0.018 -0.0097 0.0004, -0.0203 -0.009 0.0, -0.0203 -0.009 0.0004, -0.0223 -0.0078 0.0, -0.0223 -0.0078 0.0004, -0.024 -0.0063 0.0, -0.024 -0.0063 0.0004, -0.0251 -0.0045 0.0, -0.0251 -0.0045 0.0004, -0.0258 -0.0024 0.0, -0.0258 -0.0024 0.0004, -0.0221 0.0049 0.0004, -0.0212 0.0059 0.0004, -0.0197 0.0068 0.0004, -0.0181 0.0074 0.0004, -0.0158 0.0076 0.0004, -0.0129 0.0076 0.0004, -0.0129 -0.0077 0.0004, -0.0157 -0.0077 0.0004, -0.0177 -0.0075 0.0004, -0.0194 -0.007 0.0004, -0.0207 -0.0062 0.0004, -0.0218 -0.0051 0.0004, -0.0227 -0.0038 0.0004, -0.0232 -0.0019 0.0004, -0.0234 0.0001 0.0004, -0.0233 0.0021 0.0004, -0.0228 0.0037 0.0004, -0.0158 0.0076 0.0, -0.0129 0.0076 0.0, -0.0181 0.0074 0.0, -0.0197 0.0068 0.0, -0.0212 0.0059 0.0, -0.0221 0.0049 0.0, -0.0228 0.0037 0.0, -0.0233 0.0021 0.0, -0.0234 0.0001 0.0, -0.0232 -0.0019 0.0, -0.0227 -0.0038 0.0, -0.0218 -0.0051 0.0, -0.0207 -0.0062 0.0, -0.0194 -0.007 -0.0, -0.0177 -0.0075 0.0, -0.0157 -0.0077 0.0, -0.0129 -0.0077 0.0, -0.0064 -0.0077 0.0004, -0.0064 -0.0099 0.0004, -0.0064 -0.0077 0.0, -0.0064 -0.0099 0.0, 0.0042 -0.0099 0.0004, 0.0042 -0.0099 0.0, 0.0042 0.0098 0.0004, 0.0042 0.0098 0.0, -0.0059 0.0098 0.0004, -0.0059 0.0098 0.0, -0.0059 0.0076 0.0004, -0.0059 0.0076 0.0, 0.0015 0.0076 0.0004, 0.0015 0.0076 0.0, 0.0015 0.0011 0.0004, 0.0015 0.0011 0.0, -0.0054 0.0011 0.0004, -0.0054 0.0011 0.0, -0.0054 -0.001 0.0004, -0.0054 -0.001 0.0, 0.0015 -0.001 0.0004, 0.0015 -0.001 0.0, 0.0015 -0.0077 0.0004, 0.0015 -0.0077 0.0, 0.008 -0.0067 0.0004, 0.008 -0.0089 0.0004, 0.008 -0.0067 0.0, 0.008 -0.0089 0.0, 0.0101 -0.0097 0.0004, 0.0134 -0.0101 0.0004, 0.0134 -0.0101 0.0, 0.0129 -0.0101 0.0, 0.0129 -0.0101 0.0004, 0.0121 -0.01 0.0, 0.0101 -0.0097 0.0, 0.0227 -0.0004 0.0004, 0.0227 -0.0004 0.0, 0.0225 -0.0027 0.0, 0.0225 -0.0027 0.0004, 0.0219 -0.0048 0.0, 0.0219 -0.0048 0.0004, 0.0208 -0.0067 0.0, 0.0208 -0.0067 0.0004, 0.0194 -0.0082 0.0, 0.0194 -0.0082 0.0004, 0.0178 -0.0092 0.0, 0.0178 -0.0092 0.0004, 0.0159 -0.0099 0.0, 0.0159 -0.0099 0.0004, 0.0146 -0.01 0.0, 0.0126 0.01 0.0004, 0.0126 0.01 0.0, 0.0146 0.0099 0.0, 0.0146 0.0099 0.0004, 0.0168 0.0092 0.0, 0.0168 0.0092 0.0004, 0.0187 0.0082 0.0, 0.0187 0.0082 0.0004, 0.0205 0.0064 0.0, 0.0205 0.0064 0.0004, 0.0216 0.0046 0.0, 0.0216 0.0046 0.0004, 0.0224 0.0024 0.0, 0.0224 0.0024 0.0004, 0.008 0.0092 0.0004, 0.008 0.0092 0.0, 0.0103 0.0099 0.0, 0.0103 0.0099 0.0004, 0.008 0.0066 0.0004, 0.008 0.0066 0.0, 0.0126 0.0079 0.0004, 0.0126 0.0079 0.0, 0.0102 0.0076 0.0, 0.0102 0.0076 0.0004, 0.02 -0.0003 0.0004, 0.02 -0.0003 0.0, 0.0199 0.0013 0.0, 0.0199 0.0013 0.0004, 0.0194 0.0034 0.0, 0.0194 0.0034 0.0004, 0.0186 0.0049 0.0, 0.0186 0.0049 0.0004, 0.0174 0.0062 0.0, 0.0174 0.0062 0.0004, 0.016 0.0071 0.0, 0.016 0.0071 0.0004, 0.0146 0.0076 0.0, 0.0146 0.0076 0.0004, 0.0131 -0.008 0.0004, 0.0131 -0.008 0.0, 0.0149 -0.0078 0.0, 0.0149 -0.0078 0.0004, 0.0163 -0.0072 0.0, 0.0163 -0.0072 0.0004, 0.0175 -0.0064 0.0, 0.0175 -0.0064 0.0004, 0.0185 -0.0055 0.0, 0.0185 -0.0055 0.0004, 0.0193 -0.0041 0.0, 0.0193 -0.0041 0.0004, 0.0198 -0.0024 0.0, 0.0198 -0.0024 0.0004, 0.0084 -0.0069 0.0, 0.0084 -0.0069 0.0004, 0.0105 -0.0077 0.0, 0.0105 -0.0077 0.0004, 0.0243 -0.0077 0.0004, 0.0243 -0.0099 0.0004, 0.0243 -0.0077 0.0, 0.0243 -0.0099 0.0, 0.0344 -0.0099 0.0004, 0.0344 -0.0099 0.0, 0.0344 0.0098 0.0004, 0.0344 0.0098 0.0, 0.0318 0.0098 0.0004, 0.0318 0.0098 0.0, 0.0318 -0.0077 0.0004, 0.0318 -0.0077 0.0, 0.0318 -0.0077 0.0
            ]
        }
        coordIndex [
            0,1,2,-1,2,1,3,-1,1,4,3,-1,3,4,5,-1,4,6,5,-1,5,6,7,-1,6,8,7,-1,7,8,9,-1,8,10,9,-1,9,10,11,-1,10,12,11,-1,11,12,13,-1,12,14,13,-1,13,14,15,-1,14,0,15,-1,15,0,2,-1,16,8,17,-1,17,8,6,-1,18,14,16,-1,16,14,12,-1,16,12,8,-1,8,12,10,-1,18,19,14,-1,14,19,20,-1,14,20,0,-1,0,20,21,-1,0,21,22,-1,22,23,0,-1,0,23,17,-1,0,17,1,-1,1,17,6,-1,1,6,4,-1,16,17,24,-1,24,17,25,-1,18,16,26,-1,26,16,24,-1,18,26,27,-1,18,27,19,-1,19,27,28,-1,19,28,20,-1,21,20,29,-1,29,20,28,-1,21,29,30,-1,21,30,22,-1,22,30,31,-1,22,31,23,-1,17,23,25,-1,25,23,31,-1,32,33,34,-1,34,33,35,-1,33,36,35,-1,35,36,37,-1,36,38,37,-1,37,38,39,-1,40,41,42,-1,40,42,43,-1,43,42,44,-1,43,44,45,-1,45,44,46,-1,45,46,47,-1,47,46,48,-1,47,48,49,-1,49,48,50,-1,49,50,51,-1,51,50,52,-1,51,52,53,-1,53,52,54,-1,53,54,55,-1,55,54,39,-1,55,39,38,-1,32,34,56,-1,32,56,57,-1,57,56,58,-1,57,58,59,-1,59,58,60,-1,59,60,61,-1,61,60,62,-1,61,62,63,-1,63,62,64,-1,63,64,65,-1,65,64,66,-1,65,66,67,-1,67,66,41,-1,67,41,40,-1,45,47,68,-1,68,47,49,-1,68,49,69,-1,69,49,51,-1,69,51,70,-1,70,51,53,-1,70,53,71,-1,71,53,55,-1,71,55,72,-1,72,55,38,-1,72,38,73,-1,73,38,36,-1,73,36,74,-1,74,36,33,-1,74,33,75,-1,75,33,32,-1,75,32,76,-1,76,32,57,-1,76,57,77,-1,77,57,59,-1,77,59,78,-1,78,59,61,-1,78,61,79,-1,79,61,63,-1,79,63,80,-1,80,63,65,-1,80,65,81,-1,81,65,67,-1,81,67,82,-1,82,67,40,-1,82,40,83,-1,83,40,43,-1,83,43,84,-1,84,43,45,-1,84,45,68,-1,72,73,85,-1,85,73,86,-1,72,85,87,-1,72,87,71,-1,71,87,88,-1,71,88,70,-1,70,88,89,-1,70,89,69,-1,69,89,90,-1,69,90,68,-1,68,90,91,-1,68,91,84,-1,84,91,92,-1,84,92,83,-1,83,92,93,-1,83,93,82,-1,82,93,94,-1,82,94,81,-1,81,94,95,-1,81,95,80,-1,80,95,96,-1,80,96,79,-1,79,96,97,-1,79,97,78,-1,78,97,98,-1,78,98,77,-1,77,98,99,-1,77,99,76,-1,76,99,100,-1,76,100,75,-1,74,75,101,-1,101,75,100,-1,73,74,86,-1,86,74,101,-1,102,103,104,-1,104,103,105,-1,103,106,105,-1,105,106,107,-1,106,108,107,-1,107,108,109,-1,108,110,109,-1,109,110,111,-1,110,112,111,-1,111,112,113,-1,112,114,113,-1,113,114,115,-1,114,116,115,-1,115,116,117,-1,116,118,117,-1,117,118,119,-1,118,120,119,-1,119,120,121,-1,120,122,121,-1,121,122,123,-1,122,124,123,-1,123,124,125,-1,124,102,125,-1,125,102,104,-1,106,103,102,-1,102,124,106,-1,106,124,122,-1,106,122,108,-1,112,110,114,-1,114,110,108,-1,114,108,116,-1,116,108,122,-1,116,122,118,-1,118,122,120,-1,126,127,128,-1,128,127,129,-1,129,127,130,-1,131,132,133,-1,131,133,134,-1,134,133,135,-1,134,135,130,-1,130,135,136,-1,130,136,129,-1,137,138,139,-1,137,139,140,-1,140,139,141,-1,140,141,142,-1,142,141,143,-1,142,143,144,-1,144,143,145,-1,144,145,146,-1,146,145,147,-1,146,147,148,-1,148,147,149,-1,148,149,150,-1,150,149,131,-1,131,149,151,-1,131,151,132,-1,152,153,154,-1,152,154,155,-1,155,154,156,-1,155,156,157,-1,157,156,158,-1,157,158,159,-1,159,158,160,-1,159,160,161,-1,161,160,162,-1,161,162,163,-1,163,162,164,-1,163,164,165,-1,165,164,138,-1,165,138,137,-1,166,167,168,-1,166,168,169,-1,169,168,153,-1,169,153,152,-1,166,170,167,-1,167,170,171,-1,172,173,174,-1,172,174,175,-1,175,174,171,-1,175,171,170,-1,176,177,178,-1,176,178,179,-1,179,178,180,-1,179,180,181,-1,181,180,182,-1,181,182,183,-1,183,182,184,-1,183,184,185,-1,185,184,186,-1,185,186,187,-1,187,186,188,-1,187,188,189,-1,189,188,173,-1,189,173,172,-1,190,191,192,-1,190,192,193,-1,193,192,194,-1,193,194,195,-1,195,194,196,-1,195,196,197,-1,197,196,198,-1,197,198,199,-1,199,198,200,-1,199,200,201,-1,201,200,202,-1,201,202,203,-1,203,202,177,-1,203,177,176,-1,126,128,204,-1,126,204,205,-1,205,204,206,-1,205,206,207,-1,207,206,191,-1,207,191,190,-1,193,131,190,-1,190,131,134,-1,190,134,207,-1,207,134,130,-1,207,130,205,-1,205,130,127,-1,205,127,126,-1,170,166,175,-1,175,166,169,-1,175,169,172,-1,172,169,152,-1,172,152,189,-1,189,152,155,-1,189,155,187,-1,187,155,157,-1,187,157,185,-1,185,157,159,-1,185,159,183,-1,183,159,161,-1,183,161,181,-1,181,161,163,-1,181,163,179,-1,179,163,165,-1,179,165,176,-1,176,165,137,-1,176,137,203,-1,203,137,140,-1,203,140,201,-1,201,140,142,-1,201,142,199,-1,199,142,144,-1,199,144,197,-1,197,144,146,-1,197,146,195,-1,195,146,148,-1,195,148,193,-1,193,148,150,-1,193,150,131,-1,208,209,210,-1,210,209,211,-1,209,212,211,-1,211,212,213,-1,212,214,213,-1,213,214,215,-1,214,216,215,-1,215,216,217,-1,216,218,217,-1,217,218,219,-1,218,208,219,-1,219,208,210,-1,216,214,218,-1,218,214,212,-1,218,212,208,-1,208,212,209,-1,
        ]
    }
}
Shape{
    appearance Appearance {
        material  Material 	{
            diffuseColor 0.25098039215686274 0.25098039215686274 0.25098039215686274
            specularColor 0.12549019607843137 0.12549019607843137 0.12549019607843137
            ambientIntensity 0.2
            transparency 0
            shininess 0.5
        }
    }
    geometry IndexedFaceSet {
        ccw TRUE
        solid FALSE
        coord DEF co Coordinate {
            point [
                -0.0329 -0.0022 0.0, -0.0395 -0.0022 0.0, -0.0359 0.006 0.0, -0.0366 0.006 0.0, -0.0361 0.0067 -0.0, -0.0364 0.0067 0.0, -0.0362 0.0074 0.0, -0.0363 0.0074 0.0, -0.0129 0.0076 0.0, -0.0129 -0.0077 0.0, -0.0158 0.0076 0.0, -0.0157 -0.0077 0.0, -0.0177 -0.0075 0.0, -0.0234 0.0001 0.0, -0.0233 0.0021 0.0, -0.0228 0.0037 0.0, -0.0181 0.0074 0.0, -0.0194 -0.007 -0.0, -0.0207 -0.0062 0.0, -0.0218 -0.0051 0.0, -0.0227 -0.0038 0.0, -0.0232 -0.0019 0.0, -0.0221 0.0049 0.0, -0.0212 0.0059 0.0, -0.0197 0.0068 0.0, -0.0197 0.0068 0.0
            ]
        }
        coordIndex [
            0,1,2,-1,2,1,3,-1,2,3,4,-1,4,3,5,-1,4,5,6,-1,6,5,7,-1,8,9,10,-1,10,9,11,-1,10,11,12,-1,13,14,10,-1,10,14,15,-1,10,15,16,-1,12,17,10,-1,10,17,18,-1,10,18,19,-1,19,20,10,-1,10,20,21,-1,10,21,13,-1,22,23,15,-1,15,23,24,-1,15,24,16,-1,
        ]
    }
}
Shape{
    appearance Appearance {
        material  Material 	{
            diffuseColor 0.8509803921568627 0.8509803921568627 0.8509803921568627
            specularColor 0.4235294117647059 0.4235294117647059 0.4235294117647059
            ambientIntensity 0.2
            transparency 0
            shininess 0.5
        }
    }
    geometry IndexedFaceSet {
        ccw TRUE
        solid FALSE
        coord DEF co Coordinate {
            point [
                0.1181 0.0906 -0.0039, 0.1181 0.0906 0.0, 0.1172 0.0824 0.0, 0.1172 0.0824 -0.0039, 0.1147 0.0745 0.0, 0.1147 0.0745 -0.0039, 0.1106 0.0674 0.0, 0.1106 0.0674 -0.0039, 0.1051 0.0613 0.0, 0.1051 0.0613 -0.0039, 0.0984 0.0565 0.0, 0.0984 0.0565 -0.0039, 0.0909 0.0531 0.0, 0.0909 0.0531 -0.0039, 0.0829 0.0514 0.0, 0.0829 0.0514 -0.0039, 0.0746 0.0514 0.0, 0.0746 0.0514 -0.0039, 0.0666 0.0531 0.0, 0.0666 0.0531 -0.0039, 0.0591 0.0565 0.0, 0.0591 0.0565 -0.0039, 0.0524 0.0613 0.0, 0.0524 0.0613 -0.0039, 0.0469 0.0674 0.0, 0.0469 0.0674 -0.0039, 0.0428 0.0745 0.0, 0.0428 0.0745 -0.0039, 0.0402 0.0824 0.0, 0.0402 0.0824 -0.0039, 0.0394 0.0906 0.0, 0.0394 0.0906 -0.0039, -0.1181 -0.0906 -0.0039, -0.1181 -0.0906 0.0, -0.1172 -0.0824 0.0, -0.1172 -0.0824 -0.0039, -0.1147 -0.0745 0.0, -0.1147 -0.0745 -0.0039, -0.1106 -0.0674 0.0, -0.1106 -0.0674 -0.0039, -0.1051 -0.0613 0.0, -0.1051 -0.0613 -0.0039, -0.0984 -0.0565 0.0, -0.0984 -0.0565 -0.0039, -0.0909 -0.0531 0.0, -0.0909 -0.0531 -0.0039, -0.0829 -0.0514 0.0, -0.0829 -0.0514 -0.0039, -0.0746 -0.0514 0.0, -0.0746 -0.0514 -0.0039, -0.0666 -0.0531 0.0, -0.0666 -0.0531 -0.0039, -0.0591 -0.0565 0.0, -0.0591 -0.0565 -0.0039, -0.0524 -0.0613 0.0, -0.0524 -0.0613 -0.0039, -0.0469 -0.0674 0.0, -0.0469 -0.0674 -0.0039, -0.0428 -0.0745 0.0, -0.0428 -0.0745 -0.0039, -0.0402 -0.0824 0.0, -0.0402 -0.0824 -0.0039, -0.0394 -0.0906 0.0, -0.0394 -0.0906 -0.0039, 0.0394 -0.0906 -0.0039, 0.0394 -0.0906 0.0, 0.0402 -0.0824 0.0, 0.0402 -0.0824 -0.0039, 0.0428 -0.0745 0.0, 0.0428 -0.0745 -0.0039, 0.0469 -0.0674 0.0, 0.0469 -0.0674 -0.0039, 0.0524 -0.0613 0.0, 0.0524 -0.0613 -0.0039, 0.0591 -0.0565 0.0, 0.0591 -0.0565 -0.0039, 0.0666 -0.0531 0.0, 0.0666 -0.0531 -0.0039, 0.0746 -0.0514 0.0, 0.0746 -0.0514 -0.0039, 0.0829 -0.0514 0.0, 0.0829 -0.0514 -0.0039, 0.0909 -0.0531 0.0, 0.0909 -0.0531 -0.0039, 0.0984 -0.0565 0.0, 0.0984 -0.0565 -0.0039, 0.1051 -0.0613 0.0, 0.1051 -0.0613 -0.0039, 0.1106 -0.0674 0.0, 0.1106 -0.0674 -0.0039, 0.1147 -0.0745 0.0, 0.1147 -0.0745 -0.0039, 0.1172 -0.0824 0.0, 0.1172 -0.0824 -0.0039, 0.1181 -0.0906 0.0, 0.1181 -0.0906 -0.0039, -0.0394 0.0906 -0.0039, -0.0394 0.0906 0.0, -0.0402 0.0824 0.0, -0.0402 0.0824 -0.0039, -0.0428 0.0745 0.0, -0.0428 0.0745 -0.0039, -0.0469 0.0674 0.0, -0.0469 0.0674 -0.0039, -0.0524 0.0613 0.0, -0.0524 0.0613 -0.0039, -0.0591 0.0565 0.0, -0.0591 0.0565 -0.0039, -0.0666 0.0531 0.0, -0.0666 0.0531 -0.0039, -0.0746 0.0514 0.0, -0.0746 0.0514 -0.0039, -0.0829 0.0514 0.0, -0.0829 0.0514 -0.0039, -0.0909 0.0531 0.0, -0.0909 0.0531 -0.0039, -0.0984 0.0565 0.0, -0.0984 0.0565 -0.0039, -0.1051 0.0613 0.0, -0.1051 0.0613 -0.0039, -0.1106 0.0674 0.0, -0.1106 0.0674 -0.0039, -0.1147 0.0745 0.0, -0.1147 0.0745 -0.0039, -0.1172 0.0824 0.0, -0.1172 0.0824 -0.0039, -0.1181 0.0906 0.0, -0.1181 0.0906 -0.0039, -0.0394 -0.1024 0.0079, -0.0394 -0.1024 0.1102, -0.1181 -0.1024 0.0079, -0.1181 -0.1024 0.1102, 0.0394 -0.1024 0.1102, 0.0394 -0.1024 0.0079, 0.1181 -0.1024 0.1102, 0.1181 -0.1024 0.0079, 0.0394 0.1024 0.0079, 0.0394 0.1024 0.1102, 0.1181 0.1024 0.0079, 0.1181 0.1024 0.1102, -0.1181 0.1024 0.0079, -0.1181 0.1024 0.1102, -0.0394 0.1024 0.0079, -0.0394 0.1024 0.1102, -0.0394 0.1024 0.1102
            ]
        }
        coordIndex [
            0,1,2,-1,0,2,3,-1,3,2,4,-1,3,4,5,-1,5,4,6,-1,5,6,7,-1,7,6,8,-1,7,8,9,-1,9,8,10,-1,9,10,11,-1,11,10,12,-1,11,12,13,-1,13,12,14,-1,13,14,15,-1,15,14,16,-1,15,16,17,-1,17,16,18,-1,17,18,19,-1,19,18,20,-1,19,20,21,-1,21,20,22,-1,21,22,23,-1,23,22,24,-1,23,24,25,-1,25,24,26,-1,25,26,27,-1,27,26,28,-1,27,28,29,-1,29,28,30,-1,29,30,31,-1,31,0,3,-1,7,9,29,-1,29,9,11,-1,29,11,13,-1,31,3,29,-1,29,3,5,-1,29,5,7,-1,13,15,29,-1,29,15,17,-1,29,17,19,-1,19,21,29,-1,29,21,23,-1,29,23,27,-1,27,23,25,-1,32,33,34,-1,32,34,35,-1,35,34,36,-1,35,36,37,-1,37,36,38,-1,37,38,39,-1,39,38,40,-1,39,40,41,-1,41,40,42,-1,41,42,43,-1,43,42,44,-1,43,44,45,-1,45,44,46,-1,45,46,47,-1,47,46,48,-1,47,48,49,-1,49,48,50,-1,49,50,51,-1,51,50,52,-1,51,52,53,-1,53,52,54,-1,53,54,55,-1,55,54,56,-1,55,56,57,-1,57,56,58,-1,57,58,59,-1,59,58,60,-1,59,60,61,-1,61,60,62,-1,61,62,63,-1,63,32,61,-1,61,32,35,-1,35,37,61,-1,61,37,39,-1,61,39,59,-1,49,51,39,-1,39,51,53,-1,39,41,43,-1,53,55,39,-1,39,55,57,-1,39,57,59,-1,43,45,39,-1,39,45,47,-1,39,47,49,-1,64,65,66,-1,64,66,67,-1,67,66,68,-1,67,68,69,-1,69,68,70,-1,69,70,71,-1,71,70,72,-1,71,72,73,-1,73,72,74,-1,73,74,75,-1,75,74,76,-1,75,76,77,-1,77,76,78,-1,77,78,79,-1,79,78,80,-1,79,80,81,-1,81,80,82,-1,81,82,83,-1,83,82,84,-1,83,84,85,-1,85,84,86,-1,85,86,87,-1,87,86,88,-1,87,88,89,-1,89,88,90,-1,89,90,91,-1,91,90,92,-1,91,92,93,-1,93,92,94,-1,93,94,95,-1,95,64,67,-1,89,91,67,-1,67,91,93,-1,67,93,95,-1,73,85,71,-1,71,85,69,-1,69,85,67,-1,67,85,87,-1,67,87,89,-1,79,73,77,-1,77,73,75,-1,79,81,73,-1,73,81,83,-1,73,83,85,-1,96,97,98,-1,96,98,99,-1,99,98,100,-1,99,100,101,-1,101,100,102,-1,101,102,103,-1,103,102,104,-1,103,104,105,-1,105,104,106,-1,105,106,107,-1,107,106,108,-1,107,108,109,-1,109,108,110,-1,109,110,111,-1,111,110,112,-1,111,112,113,-1,113,112,114,-1,113,114,115,-1,115,114,116,-1,115,116,117,-1,117,116,118,-1,117,118,119,-1,119,118,120,-1,119,120,121,-1,121,120,122,-1,121,122,123,-1,123,122,124,-1,123,124,125,-1,125,124,126,-1,125,126,127,-1,123,125,99,-1,99,125,127,-1,99,127,96,-1,101,119,99,-1,99,119,121,-1,99,121,123,-1,101,103,119,-1,119,103,105,-1,119,105,107,-1,111,113,115,-1,107,109,119,-1,119,109,111,-1,119,111,117,-1,117,111,115,-1,128,129,130,-1,130,129,131,-1,132,133,134,-1,134,133,135,-1,136,137,138,-1,138,137,139,-1,140,141,142,-1,142,141,143,-1,
        ]
    }
}
Shape{
    appearance Appearance {
        material  Material 	{
            diffuseColor 0.25098039215686274 0.25098039215686274 0.25098039215686274
            specularColor 0.12549019607843137 0.12549019607843137 0.12549019607843137
            ambientIntensity 0.2
            transparency 0
            shininess 0.5
        }
    }
    geometry IndexedFaceSet {
        ccw TRUE
        solid FALSE
        coord DEF co Coordinate {
            point [
                0.1181 0.0922 0.1179, 0.1181 0.0906 0.1181, 0.1299 0.0906 0.1181, 0.1299 0.0922 0.1179, 0.1299 0.0926 0.1178, 0.1181 0.0939 0.1174, 0.1299 0.0939 0.1173, 0.1299 0.0945 0.1171, 0.1181 0.0954 0.1164, 0.1299 0.0954 0.1164, 0.1299 0.0961 0.1158, 0.1181 0.0967 0.1152, 0.1299 0.0966 0.1151, 0.1299 0.0974 0.1142, 0.1181 0.0976 0.1137, 0.1299 0.0976 0.1137, 0.1299 0.0982 0.1123, 0.1181 0.0982 0.112, 0.1299 0.0982 0.112, 0.1299 0.0984 0.1102, 0.1181 0.0984 0.1102, 0.1378 0.0906 0.1102, 0.1378 0.0906 0.0079, 0.1375 0.0926 0.0079, 0.1375 0.0926 0.1102, 0.1367 0.0945 0.0079, 0.1367 0.0945 0.1102, 0.1355 0.0961 0.0079, 0.1355 0.0961 0.1102, 0.1339 0.0974 0.0079, 0.1339 0.0974 0.1102, 0.132 0.0982 0.0079, 0.132 0.0982 0.1102, 0.1299 0.0984 0.0079, 0.1181 0.0906 0.0, 0.1181 0.0922 0.0002, 0.1299 0.0906 0.0, 0.1299 0.0922 0.0002, 0.1299 0.0926 0.0003, 0.1181 0.0939 0.0008, 0.1299 0.0939 0.0008, 0.1299 0.0945 0.0011, 0.1181 0.0954 0.0017, 0.1299 0.0954 0.0017, 0.1299 0.0961 0.0023, 0.1181 0.0967 0.0029, 0.1299 0.0966 0.003, 0.1299 0.0974 0.0039, 0.1181 0.0976 0.0044, 0.1299 0.0976 0.0045, 0.1299 0.0982 0.0058, 0.1181 0.0982 0.0061, 0.1299 0.0982 0.0061, 0.1181 0.0984 0.0079, 0.1317 0.0971 0.1142, 0.1314 0.0959 0.1158, 0.1309 0.0944 0.1171, 0.1304 0.0925 0.1178, 0.1309 0.0923 0.1178, 0.132 0.0906 0.1178, 0.1319 0.0911 0.1178, 0.1327 0.0933 0.1171, 0.1317 0.0916 0.1178, 0.1333 0.0925 0.1171, 0.1337 0.0916 0.1171, 0.1339 0.0906 0.1171, 0.1319 0.094 0.1171, 0.1314 0.092 0.1178, 0.1327 0.0954 0.1158, 0.1339 0.0945 0.1158, 0.1347 0.0933 0.1158, 0.1353 0.092 0.1158, 0.1355 0.0906 0.1158, 0.1333 0.0965 0.1142, 0.1347 0.0954 0.1142, 0.1358 0.094 0.1142, 0.1365 0.0923 0.1142, 0.1367 0.0906 0.1142, 0.1319 0.0979 0.1123, 0.1337 0.0971 0.1123, 0.1353 0.0959 0.1123, 0.1365 0.0944 0.1123, 0.1373 0.0925 0.1123, 0.1375 0.0906 0.1123, 0.1314 0.092 0.0003, 0.1317 0.0916 0.0003, 0.1309 0.0944 0.0011, 0.1314 0.0959 0.0023, 0.1373 0.0925 0.0058, 0.1353 0.0959 0.0058, 0.1319 0.0979 0.0058, 0.1337 0.0971 0.0058, 0.1333 0.0965 0.0039, 0.1317 0.0971 0.0039, 0.1367 0.0906 0.0039, 0.1355 0.0906 0.0023, 0.1353 0.092 0.0023, 0.1327 0.0954 0.0023, 0.1347 0.0954 0.0039, 0.1365 0.0944 0.0058, 0.1337 0.0916 0.0011, 0.1333 0.0925 0.0011, 0.1358 0.094 0.0039, 0.1339 0.0945 0.0023, 0.1319 0.094 0.0011, 0.1304 0.0925 0.0003, 0.1319 0.0911 0.0003, 0.1339 0.0906 0.0011, 0.132 0.0906 0.0003, 0.1375 0.0906 0.0058, 0.1365 0.0923 0.0039, 0.1347 0.0933 0.0023, 0.1327 0.0933 0.0011, 0.1309 0.0923 0.0003, 0.1299 -0.0906 0.1181, 0.1181 -0.0906 0.1181, 0.1181 -0.0926 0.1178, 0.1299 -0.0926 0.1178, 0.1181 -0.0945 0.1171, 0.1299 -0.0945 0.1171, 0.1181 -0.0961 0.1158, 0.1299 -0.0961 0.1158, 0.1181 -0.0974 0.1142, 0.1299 -0.0974 0.1142, 0.1181 -0.0982 0.1123, 0.1299 -0.0982 0.1123, 0.1181 -0.0984 0.1102, 0.1299 -0.0984 0.1102, 0.132 -0.0906 0.1178, 0.1339 -0.0906 0.1171, 0.1355 -0.0906 0.1158, 0.1367 -0.0906 0.1142, 0.1375 -0.0906 0.1123, 0.1378 -0.0906 0.1102, 0.1299 -0.01 0.0, 0.132 -0.0906 0.0003, 0.1299 -0.0906 0.0, 0.1339 -0.0906 0.0011, 0.1355 -0.0906 0.0023, 0.1367 -0.0906 0.0039, 0.1375 -0.0906 0.0058, 0.1378 -0.0906 0.0079, 0.1181 -0.0906 0.0, 0.1299 -0.0926 0.0003, 0.1181 -0.0926 0.0003, 0.1299 -0.0945 0.0011, 0.1181 -0.0945 0.0011, 0.1299 -0.0961 0.0023, 0.1181 -0.0961 0.0023, 0.1299 -0.0974 0.0039, 0.1181 -0.0974 0.0039, 0.1299 -0.0982 0.0058, 0.1181 -0.0982 0.0058, 0.1299 -0.0984 0.0079, 0.1181 -0.0984 0.0079, 0.1373 -0.0925 0.1123, 0.1333 -0.0925 0.1171, 0.1317 -0.0916 0.1178, 0.1314 -0.092 0.1178, 0.1304 -0.0925 0.1178, 0.1319 -0.0911 0.1178, 0.1337 -0.0916 0.1171, 0.1353 -0.092 0.1158, 0.1327 -0.0933 0.1171, 0.1309 -0.0923 0.1178, 0.1319 -0.094 0.1171, 0.1309 -0.0944 0.1171, 0.1347 -0.0933 0.1158, 0.1339 -0.0945 0.1158, 0.1327 -0.0954 0.1158, 0.1314 -0.0959 0.1158, 0.1365 -0.0923 0.1142, 0.1358 -0.094 0.1142, 0.1347 -0.0954 0.1142, 0.1333 -0.0965 0.1142, 0.1317 -0.0971 0.1142, 0.1365 -0.0944 0.1123, 0.1353 -0.0959 0.1123, 0.1337 -0.0971 0.1123, 0.1319 -0.0979 0.1123, 0.1375 -0.0926 0.1102, 0.1367 -0.0945 0.1102, 0.1355 -0.0961 0.1102, 0.1339 -0.0974 0.1102, 0.132 -0.0982 0.1102, 0.1375 -0.0926 0.0079, 0.1367 -0.0945 0.0079, 0.1373 -0.0925 0.0058, 0.1365 -0.0944 0.0058, 0.1365 -0.0923 0.0039, 0.1358 -0.094 0.0039, 0.1353 -0.092 0.0023, 0.1347 -0.0933 0.0023, 0.1337 -0.0916 0.0011, 0.1333 -0.0925 0.0011, 0.1319 -0.0911 0.0003, 0.1317 -0.0916 0.0003, 0.1355 -0.0961 0.0079, 0.1353 -0.0959 0.0058, 0.1347 -0.0954 0.0039, 0.1339 -0.0945 0.0023, 0.1327 -0.0933 0.0011, 0.1314 -0.092 0.0003, 0.1339 -0.0974 0.0079, 0.132 -0.0982 0.0079, 0.1337 -0.0971 0.0058, 0.1319 -0.0979 0.0058, 0.1333 -0.0965 0.0039, 0.1317 -0.0971 0.0039, 0.1327 -0.0954 0.0023, 0.1314 -0.0959 0.0023, 0.1319 -0.094 0.0011, 0.1309 -0.0944 0.0011, 0.1309 -0.0923 0.0003, 0.1304 -0.0925 0.0003, -0.1181 -0.0906 0.1181, -0.1299 -0.0906 0.1181, -0.1299 -0.0926 0.1178, -0.1181 -0.0926 0.1178, -0.1299 -0.0945 0.1171, -0.1181 -0.0945 0.1171, -0.1299 -0.0961 0.1158, -0.1181 -0.0961 0.1158, -0.1299 -0.0974 0.1142, -0.1181 -0.0974 0.1142, -0.1299 -0.0982 0.1123, -0.1181 -0.0982 0.1123, -0.1299 -0.0984 0.1102, -0.1181 -0.0984 0.1102, -0.1378 -0.0906 0.1102, -0.1378 -0.0906 0.0079, -0.1375 -0.0926 0.0079, -0.1375 -0.0926 0.1102, -0.1367 -0.0945 0.0079, -0.1367 -0.0945 0.1102, -0.1355 -0.0961 0.0079, -0.1355 -0.0961 0.1102, -0.1339 -0.0974 0.0079, -0.1339 -0.0974 0.1102, -0.132 -0.0982 0.0079, -0.132 -0.0982 0.1102, -0.1299 -0.0984 0.0079, -0.1181 -0.0906 0.0, -0.1181 -0.0923 0.0002, -0.1299 -0.0906 0.0, -0.1299 -0.0923 0.0002, -0.1299 -0.0926 0.0003, -0.1181 -0.094 0.0008, -0.1299 -0.0939 0.0008, -0.1299 -0.0945 0.0011, -0.1181 -0.0955 0.0017, -0.1299 -0.0954 0.0018, -0.1299 -0.0961 0.0023, -0.1181 -0.0967 0.003, -0.1299 -0.0967 0.003, -0.1299 -0.0974 0.0039, -0.1181 -0.0976 0.0045, -0.1299 -0.0976 0.0045, -0.1299 -0.0982 0.0058, -0.1181 -0.0982 0.0061, -0.1299 -0.0982 0.0061, -0.1181 -0.0984 0.0079, -0.1319 -0.0979 0.1123, -0.1319 -0.094 0.1171, -0.1309 -0.0923 0.1178, -0.1314 -0.092 0.1178, -0.132 -0.0906 0.1178, -0.1319 -0.0911 0.1178, -0.1304 -0.0925 0.1178, -0.1309 -0.0944 0.1171, -0.1314 -0.0959 0.1158, -0.1327 -0.0933 0.1171, -0.1317 -0.0916 0.1178, -0.1333 -0.0925 0.1171, -0.1337 -0.0916 0.1171, -0.1339 -0.0906 0.1171, -0.1327 -0.0954 0.1158, -0.1339 -0.0945 0.1158, -0.1347 -0.0933 0.1158, -0.1353 -0.092 0.1158, -0.1355 -0.0906 0.1158, -0.1317 -0.0971 0.1142, -0.1333 -0.0965 0.1142, -0.1347 -0.0954 0.1142, -0.1358 -0.094 0.1142, -0.1365 -0.0923 0.1142, -0.1367 -0.0906 0.1142, -0.1337 -0.0971 0.1123, -0.1353 -0.0959 0.1123, -0.1365 -0.0944 0.1123, -0.1373 -0.0925 0.1123, -0.1375 -0.0906 0.1123, -0.1314 -0.092 0.0003, -0.1317 -0.0916 0.0003, -0.1309 -0.0944 0.0011, -0.1314 -0.0959 0.0023, -0.1373 -0.0925 0.0058, -0.1353 -0.0959 0.0058, -0.1319 -0.0979 0.0058, -0.1337 -0.0971 0.0058, -0.1333 -0.0965 0.0039, -0.1317 -0.0971 0.0039, -0.1367 -0.0906 0.0039, -0.1355 -0.0906 0.0023, -0.1353 -0.092 0.0023, -0.1327 -0.0954 0.0023, -0.1347 -0.0954 0.0039, -0.1365 -0.0944 0.0058, -0.1337 -0.0916 0.0011, -0.1333 -0.0925 0.0011, -0.1358 -0.094 0.0039, -0.1339 -0.0945 0.0023, -0.1319 -0.094 0.0011, -0.1304 -0.0925 0.0003, -0.1319 -0.0911 0.0003, -0.1339 -0.0906 0.0011, -0.132 -0.0906 0.0003, -0.1375 -0.0906 0.0058, -0.1365 -0.0923 0.0039, -0.1347 -0.0933 0.0023, -0.1327 -0.0933 0.0011, -0.1309 -0.0923 0.0003, -0.1299 0.0906 0.1181, -0.1181 0.0906 0.1181, -0.1299 0.0922 0.1179, -0.1181 0.0922 0.1179, -0.1299 0.0926 0.1178, -0.1181 0.0939 0.1174, -0.1299 0.0939 0.1173, -0.1299 0.0945 0.1171, -0.1181 0.0954 0.1164, -0.1299 0.0954 0.1164, -0.1299 0.0961 0.1158, -0.1181 0.0967 0.1152, -0.1299 0.0966 0.1151, -0.1299 0.0974 0.1142, -0.1181 0.0976 0.1137, -0.1299 0.0976 0.1137, -0.1299 0.0982 0.1123, -0.1181 0.0982 0.112, -0.1299 0.0982 0.112, -0.1181 0.0984 0.1102, -0.1299 0.0984 0.1102, -0.132 0.0906 0.1178, -0.1339 0.0906 0.1171, -0.1355 0.0906 0.1158, -0.1367 0.0906 0.1142, -0.1375 0.0906 0.1123, -0.1378 0.0906 0.1102, -0.1299 -0.01 0.0, -0.132 0.0906 0.0003, -0.1299 0.0906 0.0, -0.1339 0.0906 0.0011, -0.1355 0.0906 0.0023, -0.1367 0.0906 0.0039, -0.1375 0.0906 0.0058, -0.1378 0.0906 0.0079, -0.1181 0.0906 0.0, -0.1299 0.0922 0.0002, -0.1181 0.0922 0.0002, -0.1299 0.0926 0.0003, -0.1181 0.0939 0.0008, -0.1299 0.0939 0.0008, -0.1299 0.0945 0.0011, -0.1181 0.0954 0.0017, -0.1299 0.0954 0.0017, -0.1299 0.0961 0.0023, -0.1181 0.0967 0.0029, -0.1299 0.0966 0.003, -0.1299 0.0974 0.0039, -0.1181 0.0976 0.0044, -0.1299 0.0976 0.0045, -0.1299 0.0982 0.0058, -0.1181 0.0982 0.0061, -0.1299 0.0982 0.0061, -0.1299 0.0984 0.0079, -0.1181 0.0984 0.0079, -0.1373 0.0925 0.1123, -0.1365 0.0923 0.1142, -0.1337 0.0916 0.1171, -0.1319 0.0911 0.1178, -0.1317 0.0916 0.1178, -0.1304 0.0925 0.1178, -0.1309 0.0923 0.1178, -0.1333 0.0925 0.1171, -0.1314 0.092 0.1178, -0.1327 0.0933 0.1171, -0.1319 0.094 0.1171, -0.1309 0.0944 0.1171, -0.1353 0.092 0.1158, -0.1347 0.0933 0.1158, -0.1339 0.0945 0.1158, -0.1327 0.0954 0.1158, -0.1314 0.0959 0.1158, -0.1358 0.094 0.1142, -0.1347 0.0954 0.1142, -0.1333 0.0965 0.1142, -0.1317 0.0971 0.1142, -0.1365 0.0944 0.1123, -0.1353 0.0959 0.1123, -0.1337 0.0971 0.1123, -0.1319 0.0979 0.1123, -0.1375 0.0926 0.1102, -0.1367 0.0945 0.1102, -0.1355 0.0961 0.1102, -0.1339 0.0974 0.1102, -0.132 0.0982 0.1102, -0.1304 0.0925 0.0003, -0.132 0.0982 0.0079, -0.1319 0.0979 0.0058, -0.1317 0.0971 0.0039, -0.1314 0.0959 0.0023, -0.1309 0.0944 0.0011, -0.1375 0.0926 0.0079, -0.1367 0.0945 0.0079, -0.1373 0.0925 0.0058, -0.1365 0.0944 0.0058, -0.1365 0.0923 0.0039, -0.1358 0.094 0.0039, -0.1353 0.092 0.0023, -0.1347 0.0933 0.0023, -0.1337 0.0916 0.0011, -0.1333 0.0925 0.0011, -0.1319 0.0911 0.0003, -0.1317 0.0916 0.0003, -0.1355 0.0961 0.0079, -0.1353 0.0959 0.0058, -0.1347 0.0954 0.0039, -0.1339 0.0945 0.0023, -0.1327 0.0933 0.0011, -0.1314 0.092 0.0003, -0.1339 0.0974 0.0079, -0.1337 0.0971 0.0058, -0.1333 0.0965 0.0039, -0.1327 0.0954 0.0023, -0.1319 0.094 0.0011, -0.1309 0.0923 0.0003, -0.0394 0.0906 0.1181, 0.0394 0.0906 0.1181, 0.0394 0.0926 0.1178, -0.0394 0.0926 0.1178, 0.0394 0.0945 0.1171, -0.0394 0.0945 0.1171, 0.0394 0.0961 0.1158, -0.0394 0.0961 0.1158, 0.0394 0.0974 0.1142, -0.0394 0.0974 0.1142, 0.0394 0.0982 0.1123, -0.0394 0.0982 0.1123, 0.0394 0.0984 0.1102, -0.0394 0.0984 0.1102, -0.0083 0.0906 0.0, -0.0394 0.0906 0.0, -0.0394 0.0926 0.0003, 0.0394 0.0926 0.0003, 0.0394 0.0906 0.0, -0.0394 0.0945 0.0011, 0.0394 0.0945 0.0011, -0.0394 0.0961 0.0023, 0.0394 0.0961 0.0023, -0.0394 0.0974 0.0039, 0.0394 0.0974 0.0039, -0.0394 0.0982 0.0058, 0.0394 0.0982 0.0058, -0.0394 0.0984 0.0079, 0.0394 0.0984 0.0079, -0.0083 -0.0906 0.0, 0.0394 -0.0906 0.0, 0.0394 -0.0926 0.0003, -0.0394 -0.0926 0.0003, -0.0394 -0.0906 0.0, 0.0394 -0.0945 0.0011, -0.0394 -0.0945 0.0011, 0.0394 -0.0961 0.0023, -0.0394 -0.0961 0.0023, 0.0394 -0.0974 0.0039, -0.0394 -0.0974 0.0039, 0.0394 -0.0982 0.0058, -0.0394 -0.0982 0.0058, 0.0394 -0.0984 0.0079, -0.0394 -0.0984 0.0079, 0.0394 -0.0906 0.1181, -0.0394 -0.0906 0.1181, -0.0394 -0.0926 0.1178, 0.0394 -0.0926 0.1178, -0.0394 -0.0945 0.1171, 0.0394 -0.0945 0.1171, -0.0394 -0.0961 0.1158, 0.0394 -0.0961 0.1158, -0.0394 -0.0974 0.1142, 0.0394 -0.0974 0.1142, -0.0394 -0.0982 0.1123, 0.0394 -0.0982 0.1123, -0.0394 -0.0984 0.1102, 0.0394 -0.0984 0.1102, 0.0394 -0.0984 0.1102
            ]
        }
        coordIndex [
            0,1,2,-1,2,3,0,-1,0,3,4,-1,0,4,5,-1,4,6,5,-1,5,6,7,-1,5,7,8,-1,7,9,8,-1,8,9,10,-1,8,10,11,-1,10,12,11,-1,11,12,13,-1,11,13,14,-1,13,15,14,-1,14,15,16,-1,14,16,17,-1,16,18,17,-1,17,18,19,-1,17,19,20,-1,21,22,23,-1,21,23,24,-1,24,23,25,-1,24,25,26,-1,26,25,27,-1,26,27,28,-1,28,27,29,-1,28,29,30,-1,30,29,31,-1,30,31,32,-1,32,31,33,-1,32,33,19,-1,34,35,36,-1,36,35,37,-1,37,35,38,-1,38,35,39,-1,38,39,40,-1,40,39,41,-1,41,39,42,-1,41,42,43,-1,43,42,44,-1,44,42,45,-1,44,45,46,-1,46,45,47,-1,47,45,48,-1,47,48,49,-1,49,48,50,-1,50,48,51,-1,50,51,52,-1,52,51,53,-1,52,53,33,-1,15,13,54,-1,12,10,55,-1,56,57,58,-1,2,59,60,-1,58,57,2,-1,3,2,57,-1,9,7,56,-1,56,7,6,-1,56,6,57,-1,57,6,4,-1,57,4,3,-1,61,62,63,-1,63,62,60,-1,63,60,64,-1,64,60,59,-1,64,59,65,-1,10,9,55,-1,55,9,56,-1,55,56,66,-1,66,56,58,-1,66,58,67,-1,67,58,2,-1,68,61,69,-1,69,61,63,-1,69,63,70,-1,70,63,64,-1,70,64,71,-1,71,64,65,-1,71,65,72,-1,54,68,73,-1,73,68,69,-1,73,69,74,-1,74,69,70,-1,74,70,75,-1,75,70,71,-1,75,71,76,-1,76,71,72,-1,76,72,77,-1,18,16,78,-1,78,16,15,-1,15,54,78,-1,78,54,73,-1,78,73,79,-1,79,73,74,-1,79,74,80,-1,80,74,75,-1,80,75,81,-1,81,75,76,-1,81,76,82,-1,82,76,77,-1,82,77,83,-1,32,19,18,-1,18,78,32,-1,32,78,79,-1,32,79,30,-1,30,79,80,-1,30,80,28,-1,28,80,81,-1,28,81,26,-1,26,81,82,-1,26,82,24,-1,24,82,83,-1,24,83,21,-1,62,2,60,-1,13,12,54,-1,54,12,55,-1,54,55,68,-1,68,55,66,-1,68,66,61,-1,61,66,67,-1,61,67,62,-1,62,67,2,-1,84,85,36,-1,40,41,86,-1,43,44,87,-1,88,23,22,-1,89,27,25,-1,33,31,52,-1,52,31,90,-1,52,90,50,-1,29,27,91,-1,91,27,89,-1,91,89,92,-1,50,90,49,-1,49,90,93,-1,49,93,47,-1,31,29,90,-1,90,29,91,-1,90,91,93,-1,93,91,92,-1,93,92,87,-1,87,44,93,-1,93,44,46,-1,93,46,47,-1,94,95,96,-1,41,43,86,-1,86,43,87,-1,86,87,97,-1,97,87,92,-1,97,92,98,-1,98,92,89,-1,98,89,99,-1,99,89,25,-1,99,25,23,-1,96,100,101,-1,23,88,99,-1,99,88,102,-1,99,102,98,-1,98,102,103,-1,98,103,97,-1,97,103,104,-1,97,104,86,-1,86,104,105,-1,86,105,40,-1,85,84,101,-1,101,100,85,-1,85,100,106,-1,85,106,36,-1,96,95,100,-1,100,95,107,-1,100,107,106,-1,106,107,108,-1,106,108,36,-1,36,37,105,-1,105,37,38,-1,105,38,40,-1,22,109,88,-1,88,109,110,-1,88,110,102,-1,102,110,111,-1,102,111,103,-1,103,111,112,-1,103,112,104,-1,104,112,113,-1,104,113,105,-1,105,113,36,-1,109,94,110,-1,110,94,96,-1,110,96,111,-1,111,96,101,-1,111,101,112,-1,112,101,84,-1,112,84,113,-1,113,84,36,-1,114,115,116,-1,114,116,117,-1,117,116,118,-1,117,118,119,-1,119,118,120,-1,119,120,121,-1,121,120,122,-1,121,122,123,-1,123,122,124,-1,123,124,125,-1,125,124,126,-1,125,126,127,-1,2,114,128,-1,2,128,59,-1,59,128,129,-1,59,129,65,-1,65,129,130,-1,65,130,72,-1,72,130,131,-1,72,131,77,-1,77,131,132,-1,77,132,83,-1,83,132,133,-1,83,133,21,-1,134,36,108,-1,135,136,134,-1,134,108,135,-1,135,108,107,-1,135,107,137,-1,137,107,95,-1,137,95,138,-1,138,95,94,-1,138,94,139,-1,139,94,109,-1,139,109,140,-1,140,109,22,-1,140,22,141,-1,142,136,143,-1,142,143,144,-1,144,143,145,-1,144,145,146,-1,146,145,147,-1,146,147,148,-1,148,147,149,-1,148,149,150,-1,150,149,151,-1,150,151,152,-1,152,151,153,-1,152,153,154,-1,133,132,155,-1,156,157,158,-1,114,117,159,-1,158,157,114,-1,160,114,157,-1,160,157,161,-1,161,157,156,-1,161,156,162,-1,128,114,160,-1,163,164,165,-1,165,164,159,-1,165,159,166,-1,166,159,117,-1,166,117,119,-1,128,160,129,-1,129,160,161,-1,129,161,130,-1,130,161,162,-1,130,162,131,-1,167,163,168,-1,168,163,165,-1,168,165,169,-1,169,165,166,-1,169,166,170,-1,170,166,119,-1,170,119,121,-1,171,167,172,-1,172,167,168,-1,172,168,173,-1,173,168,169,-1,173,169,174,-1,174,169,170,-1,174,170,175,-1,175,170,121,-1,175,121,123,-1,132,171,155,-1,155,171,172,-1,155,172,176,-1,176,172,173,-1,176,173,177,-1,177,173,174,-1,177,174,178,-1,178,174,175,-1,178,175,179,-1,179,175,123,-1,179,123,125,-1,133,155,180,-1,180,155,176,-1,180,176,181,-1,181,176,177,-1,181,177,182,-1,182,177,178,-1,182,178,183,-1,183,178,179,-1,183,179,184,-1,184,179,125,-1,184,125,127,-1,164,114,159,-1,132,131,171,-1,171,131,162,-1,171,162,167,-1,167,162,156,-1,167,156,163,-1,163,156,158,-1,163,158,164,-1,164,158,114,-1,185,186,187,-1,187,186,188,-1,187,188,189,-1,189,188,190,-1,189,190,191,-1,191,190,192,-1,191,192,193,-1,193,192,194,-1,193,194,195,-1,195,194,196,-1,195,196,136,-1,186,197,188,-1,188,197,198,-1,188,198,190,-1,190,198,199,-1,190,199,192,-1,192,199,200,-1,192,200,194,-1,194,200,201,-1,194,201,196,-1,196,201,202,-1,196,202,136,-1,141,185,140,-1,140,185,187,-1,140,187,139,-1,139,187,189,-1,139,189,138,-1,138,189,191,-1,138,191,137,-1,137,191,193,-1,137,193,135,-1,135,193,195,-1,135,195,136,-1,203,204,205,-1,205,204,206,-1,205,206,207,-1,207,206,208,-1,207,208,209,-1,209,208,210,-1,209,210,211,-1,211,210,212,-1,211,212,213,-1,213,212,214,-1,213,214,136,-1,204,153,206,-1,206,153,151,-1,206,151,208,-1,208,151,149,-1,208,149,210,-1,210,149,147,-1,210,147,212,-1,212,147,145,-1,212,145,214,-1,214,145,143,-1,214,143,136,-1,197,203,198,-1,198,203,205,-1,198,205,199,-1,199,205,207,-1,199,207,200,-1,200,207,209,-1,200,209,201,-1,201,209,211,-1,201,211,202,-1,202,211,213,-1,202,213,136,-1,127,153,204,-1,127,204,184,-1,184,204,203,-1,184,203,183,-1,183,203,197,-1,183,197,182,-1,182,197,186,-1,182,186,181,-1,181,186,185,-1,181,185,180,-1,180,185,141,-1,180,141,133,-1,215,216,217,-1,215,217,218,-1,218,217,219,-1,218,219,220,-1,220,219,221,-1,220,221,222,-1,222,221,223,-1,222,223,224,-1,224,223,225,-1,224,225,226,-1,226,225,227,-1,226,227,228,-1,229,230,231,-1,229,231,232,-1,232,231,233,-1,232,233,234,-1,234,233,235,-1,234,235,236,-1,236,235,237,-1,236,237,238,-1,238,237,239,-1,238,239,240,-1,240,239,241,-1,240,241,227,-1,242,243,244,-1,244,243,245,-1,245,243,246,-1,246,243,247,-1,246,247,248,-1,248,247,249,-1,249,247,250,-1,249,250,251,-1,251,250,252,-1,252,250,253,-1,252,253,254,-1,254,253,255,-1,255,253,256,-1,255,256,257,-1,257,256,258,-1,258,256,259,-1,258,259,260,-1,260,259,261,-1,260,261,241,-1,227,225,262,-1,263,264,265,-1,216,266,267,-1,265,264,216,-1,268,216,264,-1,268,264,269,-1,269,264,263,-1,269,263,270,-1,217,216,268,-1,271,272,273,-1,273,272,267,-1,273,267,274,-1,274,267,266,-1,274,266,275,-1,217,268,219,-1,219,268,269,-1,219,269,221,-1,221,269,270,-1,221,270,223,-1,276,271,277,-1,277,271,273,-1,277,273,278,-1,278,273,274,-1,278,274,279,-1,279,274,275,-1,279,275,280,-1,281,276,282,-1,282,276,277,-1,282,277,283,-1,283,277,278,-1,283,278,284,-1,284,278,279,-1,284,279,285,-1,285,279,280,-1,285,280,286,-1,225,281,262,-1,262,281,282,-1,262,282,287,-1,287,282,283,-1,287,283,288,-1,288,283,284,-1,288,284,289,-1,289,284,285,-1,289,285,290,-1,290,285,286,-1,290,286,291,-1,227,262,240,-1,240,262,287,-1,240,287,238,-1,238,287,288,-1,238,288,236,-1,236,288,289,-1,236,289,234,-1,234,289,290,-1,234,290,232,-1,232,290,291,-1,232,291,229,-1,272,216,267,-1,225,223,281,-1,281,223,270,-1,281,270,276,-1,276,270,263,-1,276,263,271,-1,271,263,265,-1,271,265,272,-1,272,265,216,-1,292,293,244,-1,248,249,294,-1,251,252,295,-1,296,231,230,-1,297,235,233,-1,241,239,260,-1,260,239,298,-1,260,298,258,-1,237,235,299,-1,299,235,297,-1,299,297,300,-1,258,298,257,-1,257,298,301,-1,257,301,255,-1,239,237,298,-1,298,237,299,-1,298,299,301,-1,301,299,300,-1,301,300,295,-1,295,252,301,-1,301,252,254,-1,301,254,255,-1,302,303,304,-1,249,251,294,-1,294,251,295,-1,294,295,305,-1,305,295,300,-1,305,300,306,-1,306,300,297,-1,306,297,307,-1,307,297,233,-1,307,233,231,-1,304,308,309,-1,231,296,307,-1,307,296,310,-1,307,310,306,-1,306,310,311,-1,306,311,305,-1,305,311,312,-1,305,312,294,-1,294,312,313,-1,294,313,248,-1,293,292,309,-1,309,308,293,-1,293,308,314,-1,293,314,244,-1,304,303,308,-1,308,303,315,-1,308,315,314,-1,314,315,316,-1,314,316,244,-1,244,245,313,-1,313,245,246,-1,313,246,248,-1,230,317,296,-1,296,317,318,-1,296,318,310,-1,310,318,319,-1,310,319,311,-1,311,319,320,-1,311,320,312,-1,312,320,321,-1,312,321,313,-1,313,321,244,-1,317,302,318,-1,318,302,304,-1,318,304,319,-1,319,304,309,-1,319,309,320,-1,320,309,292,-1,320,292,321,-1,321,292,244,-1,322,323,324,-1,324,323,325,-1,324,325,326,-1,326,325,327,-1,326,327,328,-1,328,327,329,-1,329,327,330,-1,329,330,331,-1,331,330,332,-1,332,330,333,-1,332,333,334,-1,334,333,335,-1,335,333,336,-1,335,336,337,-1,337,336,338,-1,338,336,339,-1,338,339,340,-1,340,339,341,-1,340,341,342,-1,216,322,343,-1,216,343,266,-1,266,343,344,-1,266,344,275,-1,275,344,345,-1,275,345,280,-1,280,345,346,-1,280,346,286,-1,286,346,347,-1,286,347,291,-1,291,347,348,-1,291,348,229,-1,349,244,316,-1,350,351,349,-1,349,316,350,-1,350,316,315,-1,350,315,352,-1,352,315,303,-1,352,303,353,-1,353,303,302,-1,353,302,354,-1,354,302,317,-1,354,317,355,-1,355,317,230,-1,355,230,356,-1,357,351,358,-1,357,358,359,-1,359,358,360,-1,359,360,361,-1,360,362,361,-1,361,362,363,-1,361,363,364,-1,363,365,364,-1,364,365,366,-1,364,366,367,-1,366,368,367,-1,367,368,369,-1,367,369,370,-1,369,371,370,-1,370,371,372,-1,370,372,373,-1,372,374,373,-1,373,374,375,-1,373,375,376,-1,348,347,377,-1,347,346,378,-1,379,380,381,-1,381,380,322,-1,343,322,380,-1,382,322,324,-1,383,322,382,-1,343,380,344,-1,344,380,379,-1,344,379,345,-1,384,385,386,-1,386,385,383,-1,386,383,387,-1,387,383,382,-1,387,382,388,-1,324,326,382,-1,382,326,328,-1,382,328,388,-1,388,328,329,-1,388,329,331,-1,389,384,390,-1,390,384,386,-1,390,386,391,-1,391,386,387,-1,391,387,392,-1,392,387,388,-1,392,388,393,-1,393,388,331,-1,393,331,332,-1,346,389,378,-1,378,389,390,-1,378,390,394,-1,394,390,391,-1,394,391,395,-1,395,391,392,-1,395,392,396,-1,396,392,393,-1,396,393,397,-1,397,393,332,-1,397,332,334,-1,347,378,377,-1,377,378,394,-1,377,394,398,-1,398,394,395,-1,398,395,399,-1,399,395,396,-1,399,396,400,-1,400,396,397,-1,400,397,401,-1,385,322,383,-1,346,345,389,-1,389,345,379,-1,389,379,384,-1,384,379,381,-1,384,381,385,-1,385,381,322,-1,334,335,397,-1,397,335,337,-1,397,337,401,-1,401,337,338,-1,401,338,340,-1,348,377,402,-1,402,377,398,-1,402,398,403,-1,403,398,399,-1,403,399,404,-1,404,399,400,-1,404,400,405,-1,405,400,401,-1,405,401,406,-1,406,401,340,-1,406,340,342,-1,358,351,407,-1,375,374,408,-1,408,374,409,-1,374,372,409,-1,409,372,371,-1,409,371,410,-1,371,369,410,-1,410,369,368,-1,410,368,411,-1,368,366,411,-1,411,366,365,-1,411,365,412,-1,413,414,415,-1,415,414,416,-1,415,416,417,-1,417,416,418,-1,417,418,419,-1,419,418,420,-1,419,420,421,-1,421,420,422,-1,421,422,423,-1,423,422,424,-1,423,424,351,-1,414,425,416,-1,416,425,426,-1,416,426,418,-1,418,426,427,-1,418,427,420,-1,420,427,428,-1,420,428,422,-1,422,428,429,-1,422,429,424,-1,424,429,430,-1,424,430,351,-1,356,413,355,-1,355,413,415,-1,355,415,354,-1,354,415,417,-1,354,417,353,-1,353,417,419,-1,353,419,352,-1,352,419,421,-1,352,421,350,-1,350,421,423,-1,350,423,351,-1,431,408,432,-1,432,408,409,-1,432,409,433,-1,433,409,410,-1,433,410,434,-1,434,410,411,-1,434,411,435,-1,435,411,412,-1,435,412,436,-1,436,412,407,-1,436,407,351,-1,365,363,412,-1,412,363,362,-1,412,362,407,-1,407,362,360,-1,407,360,358,-1,425,431,426,-1,426,431,432,-1,426,432,427,-1,427,432,433,-1,427,433,428,-1,428,433,434,-1,428,434,429,-1,429,434,435,-1,429,435,430,-1,430,435,436,-1,430,436,351,-1,342,375,408,-1,342,408,406,-1,406,408,431,-1,406,431,405,-1,405,431,425,-1,405,425,404,-1,404,425,414,-1,404,414,403,-1,403,414,413,-1,403,413,402,-1,402,413,356,-1,402,356,348,-1,437,438,439,-1,437,439,440,-1,440,439,441,-1,440,441,442,-1,442,441,443,-1,442,443,444,-1,444,443,445,-1,444,445,446,-1,446,445,447,-1,446,447,448,-1,448,447,449,-1,448,449,450,-1,451,452,453,-1,454,455,451,-1,451,453,454,-1,454,453,456,-1,454,456,457,-1,457,456,458,-1,457,458,459,-1,459,458,460,-1,459,460,461,-1,461,460,462,-1,461,462,463,-1,463,462,464,-1,463,464,465,-1,466,467,468,-1,469,470,466,-1,466,468,469,-1,469,468,471,-1,469,471,472,-1,472,471,473,-1,472,473,474,-1,474,473,475,-1,474,475,476,-1,476,475,477,-1,476,477,478,-1,478,477,479,-1,478,479,480,-1,481,482,483,-1,481,483,484,-1,484,483,485,-1,484,485,486,-1,486,485,487,-1,486,487,488,-1,488,487,489,-1,488,489,490,-1,490,489,491,-1,490,491,492,-1,492,491,493,-1,492,493,494,-1,
        ]
    }
}
Shape{
    appearance Appearance {
        material  Material 	{
            diffuseColor 0.8509803921568627 0.8509803921568627 0.8509803921568627
            specularColor 0.4235294117647059 0.4235294117647059 0.4235294117647059
            ambientIntensity 0.2
            transparency 0
            shininess 0.5
        }
    }
    geometry IndexedFaceSet {
        ccw TRUE
        solid FALSE
        coord DEF co Coordinate {
            point [
                0.1181 0.0906 -0.0039, 0.0394 0.0906 -0.0039, 0.0394 0.0936 -0.0035, 0.1181 0.0936 -0.0035, 0.0394 0.0965 -0.0024, 0.1181 0.0965 -0.0024, 0.0394 0.0989 -0.0005, 0.1181 0.0989 -0.0005, 0.0394 0.1008 0.002, 0.1181 0.1008 0.002, 0.0394 0.102 0.0048, 0.1181 0.102 0.0048, 0.0394 0.1024 0.0079, 0.1181 0.1024 0.0079, -0.1181 0.1024 0.0079, -0.0394 0.1024 0.0079, -0.0394 0.102 0.0048, -0.1181 0.102 0.0048, -0.0394 0.1008 0.002, -0.1181 0.1008 0.002, -0.0394 0.0989 -0.0005, -0.1181 0.0989 -0.0005, -0.0394 0.0965 -0.0024, -0.1181 0.0965 -0.0024, -0.0394 0.0936 -0.0035, -0.1181 0.0936 -0.0035, -0.0394 0.0906 -0.0039, -0.1181 0.0906 -0.0039, 0.0394 0.0906 0.122, 0.1181 0.0906 0.122, 0.1181 0.0936 0.1216, 0.0394 0.0936 0.1216, 0.1181 0.0965 0.1205, 0.0394 0.0965 0.1205, 0.1181 0.0989 0.1186, 0.0394 0.0989 0.1186, 0.1181 0.1008 0.1161, 0.0394 0.1008 0.1161, 0.1181 0.102 0.1133, 0.0394 0.102 0.1133, 0.1181 0.1024 0.1102, 0.0394 0.1024 0.1102, -0.1181 0.0906 0.122, -0.0394 0.0906 0.122, -0.0394 0.0936 0.1216, -0.1181 0.0936 0.1216, -0.0394 0.0965 0.1205, -0.1181 0.0965 0.1205, -0.0394 0.0989 0.1186, -0.1181 0.0989 0.1186, -0.0394 0.1008 0.1161, -0.1181 0.1008 0.1161, -0.0394 0.102 0.1133, -0.1181 0.102 0.1133, -0.0394 0.1024 0.1102, -0.1181 0.1024 0.1102, 0.0394 -0.1024 0.1102, 0.1181 -0.1024 0.1102, 0.1181 -0.102 0.1133, 0.0394 -0.102 0.1133, 0.1181 -0.1008 0.1161, 0.0394 -0.1008 0.1161, 0.1181 -0.0989 0.1186, 0.0394 -0.0989 0.1186, 0.1181 -0.0965 0.1205, 0.0394 -0.0965 0.1205, 0.1181 -0.0936 0.1216, 0.0394 -0.0936 0.1216, 0.1181 -0.0906 0.122, 0.0394 -0.0906 0.122, 0.0394 -0.0906 -0.0039, 0.1181 -0.0906 -0.0039, 0.1181 -0.0936 -0.0035, 0.0394 -0.0936 -0.0035, 0.1181 -0.0965 -0.0024, 0.0394 -0.0965 -0.0024, 0.1181 -0.0989 -0.0005, 0.0394 -0.0989 -0.0005, 0.1181 -0.1008 0.002, 0.0394 -0.1008 0.002, 0.1181 -0.102 0.0048, 0.0394 -0.102 0.0048, 0.1181 -0.1024 0.0079, 0.0394 -0.1024 0.0079, -0.1181 -0.0906 -0.0039, -0.0394 -0.0906 -0.0039, -0.0394 -0.0936 -0.0035, -0.1181 -0.0936 -0.0035, -0.0394 -0.0965 -0.0024, -0.1181 -0.0965 -0.0024, -0.0394 -0.0989 -0.0005, -0.1181 -0.0989 -0.0005, -0.0394 -0.1008 0.002, -0.1181 -0.1008 0.002, -0.0394 -0.102 0.0048, -0.1181 -0.102 0.0048, -0.0394 -0.1024 0.0079, -0.1181 -0.1024 0.0079, -0.0394 -0.0906 0.122, -0.1181 -0.0906 0.122, -0.1181 -0.0936 0.1216, -0.0394 -0.0936 0.1216, -0.1181 -0.0965 0.1205, -0.0394 -0.0965 0.1205, -0.1181 -0.0989 0.1186, -0.0394 -0.0989 0.1186, -0.1181 -0.1008 0.1161, -0.0394 -0.1008 0.1161, -0.1181 -0.102 0.1133, -0.0394 -0.102 0.1133, -0.1181 -0.1024 0.1102, -0.0394 -0.1024 0.1102, -0.0394 -0.1024 0.1102
            ]
        }
        coordIndex [
            0,1,2,-1,0,2,3,-1,3,2,4,-1,3,4,5,-1,5,4,6,-1,5,6,7,-1,7,6,8,-1,7,8,9,-1,9,8,10,-1,9,10,11,-1,11,10,12,-1,11,12,13,-1,14,15,16,-1,14,16,17,-1,17,16,18,-1,17,18,19,-1,19,18,20,-1,19,20,21,-1,21,20,22,-1,21,22,23,-1,23,22,24,-1,23,24,25,-1,25,24,26,-1,25,26,27,-1,28,29,30,-1,28,30,31,-1,31,30,32,-1,31,32,33,-1,33,32,34,-1,33,34,35,-1,35,34,36,-1,35,36,37,-1,37,36,38,-1,37,38,39,-1,39,38,40,-1,39,40,41,-1,42,43,44,-1,42,44,45,-1,45,44,46,-1,45,46,47,-1,47,46,48,-1,47,48,49,-1,49,48,50,-1,49,50,51,-1,51,50,52,-1,51,52,53,-1,53,52,54,-1,53,54,55,-1,56,57,58,-1,56,58,59,-1,59,58,60,-1,59,60,61,-1,61,60,62,-1,61,62,63,-1,63,62,64,-1,63,64,65,-1,65,64,66,-1,65,66,67,-1,67,66,68,-1,67,68,69,-1,70,71,72,-1,70,72,73,-1,73,72,74,-1,73,74,75,-1,75,74,76,-1,75,76,77,-1,77,76,78,-1,77,78,79,-1,79,78,80,-1,79,80,81,-1,81,80,82,-1,81,82,83,-1,84,85,86,-1,84,86,87,-1,87,86,88,-1,87,88,89,-1,89,88,90,-1,89,90,91,-1,91,90,92,-1,91,92,93,-1,93,92,94,-1,93,94,95,-1,95,94,96,-1,95,96,97,-1,98,99,100,-1,98,100,101,-1,101,100,102,-1,101,102,103,-1,103,102,104,-1,103,104,105,-1,105,104,106,-1,105,106,107,-1,107,106,108,-1,107,108,109,-1,109,108,110,-1,109,110,111,-1,
        ]
    }
}