G04 #@! TF.GenerationSoftware,KiCad,Pcbnew,10.0.1*
G04 #@! TF.CreationDate,2026-09-01T23:03:53+02:00*
G04 #@! TF.ProjectId,netdaq,6e657464-6171-42e6-9b69-6361645f7063,rev?*
G04 #@! TF.SameCoordinates,Original*
G04 #@! TF.FileFunction,Soldermask,Bot*
G04 #@! TF.FilePolarity,Negative*
%FSLAX46Y46*%
G04 Gerber Fmt 4.6, Leading zero omitted, Abs format (unit mm)*
G04 Created by KiCad (PCBNEW 10.0.1) date 2026-09-01 23:03:53*
%MOMM*%
%LPD*%
G01*
G04 APERTURE LIST*
G04 Aperture macros list*
%AMRoundRect*
0 Rectangle with rounded corners*
0 $1 Rounding radius*
0 $2 $3 $4 $5 $6 $7 $8 $9 X,Y pos of 4 corners*
0 Add a 4 corners polygon primitive as box body*
4,1,4,$2,$3,$4,$5,$6,$7,$8,$9,$2,$3,0*
0 Add four circle primitives for the rounded corners*
1,1,$1+$1,$2,$3*
1,1,$1+$1,$4,$5*
1,1,$1+$1,$6,$7*
1,1,$1+$1,$8,$9*
0 Add four rect primitives between the rounded corners*
20,1,$1+$1,$2,$3,$4,$5,0*
20,1,$1+$1,$4,$5,$6,$7,0*
20,1,$1+$1,$6,$7,$8,$9,0*
20,1,$1+$1,$8,$9,$2,$3,0*%
G04 Aperture macros list end*
%ADD10C,1.000000*%
%ADD11R,1.000000X1.000000*%
%ADD12C,3.200000*%
%ADD13R,1.050000X1.050000*%
%ADD14C,1.050000*%
%ADD15C,3.000000*%
%ADD16C,1.500000*%
%ADD17O,1.200000X2.200000*%
%ADD18R,1.700000X1.700000*%
%ADD19C,1.700000*%
%ADD20C,0.650000*%
%ADD21O,1.000000X2.100000*%
%ADD22O,1.000000X1.800000*%
%ADD23C,1.800000*%
%ADD24RoundRect,0.140000X-0.170000X0.140000X-0.170000X-0.140000X0.170000X-0.140000X0.170000X0.140000X0*%
%ADD25RoundRect,0.140000X0.170000X-0.140000X0.170000X0.140000X-0.170000X0.140000X-0.170000X-0.140000X0*%
G04 APERTURE END LIST*
D10*
G04 #@! TO.C,TP117*
X194750000Y-147500000D03*
G04 #@! TD*
G04 #@! TO.C,TP68*
X119750000Y-94250000D03*
G04 #@! TD*
G04 #@! TO.C,TP62*
X125750000Y-94000000D03*
G04 #@! TD*
G04 #@! TO.C,TP81*
X158750000Y-95750000D03*
G04 #@! TD*
G04 #@! TO.C,TP89*
X152250000Y-60500000D03*
G04 #@! TD*
G04 #@! TO.C,TP31*
X186000000Y-95000000D03*
G04 #@! TD*
G04 #@! TO.C,TP46*
X180500000Y-92300000D03*
G04 #@! TD*
G04 #@! TO.C,TP28*
X120250000Y-88750000D03*
G04 #@! TD*
G04 #@! TO.C,TP113*
X186750000Y-147500000D03*
G04 #@! TD*
G04 #@! TO.C,TP136*
X133750000Y-120000000D03*
G04 #@! TD*
G04 #@! TO.C,TP194*
X154250000Y-130000000D03*
G04 #@! TD*
G04 #@! TO.C,TP75*
X162750000Y-93500000D03*
G04 #@! TD*
G04 #@! TO.C,TP73*
X137500000Y-115000000D03*
G04 #@! TD*
G04 #@! TO.C,TP83*
X142750000Y-70000000D03*
G04 #@! TD*
D11*
G04 #@! TO.C,TP171*
X192250000Y-117500000D03*
G04 #@! TD*
D10*
G04 #@! TO.C,TP79*
X166500000Y-87750000D03*
G04 #@! TD*
G04 #@! TO.C,TP157*
X177750000Y-120000000D03*
G04 #@! TD*
G04 #@! TO.C,TP86*
X152750000Y-67500000D03*
G04 #@! TD*
G04 #@! TO.C,TP201*
X144500000Y-137500000D03*
G04 #@! TD*
G04 #@! TO.C,TP56*
X157000000Y-89250000D03*
G04 #@! TD*
G04 #@! TO.C,TP94*
X148750000Y-147500000D03*
G04 #@! TD*
G04 #@! TO.C,TP191*
X135250000Y-137500000D03*
G04 #@! TD*
G04 #@! TO.C,TP14*
X163500000Y-111750000D03*
G04 #@! TD*
G04 #@! TO.C,TP80*
X165750000Y-93000000D03*
G04 #@! TD*
D12*
G04 #@! TO.C,H1*
X125600000Y-74700000D03*
G04 #@! TD*
D13*
G04 #@! TO.C,CN1*
X200250000Y-111250000D03*
D14*
X200250000Y-109980000D03*
X201520000Y-111250000D03*
X201520000Y-109980000D03*
X202790000Y-111250000D03*
X202790000Y-109980000D03*
X204060000Y-111250000D03*
X204060000Y-109980000D03*
X205330000Y-111250000D03*
X205330000Y-109980000D03*
G04 #@! TD*
D10*
G04 #@! TO.C,TP87*
X149500000Y-70000000D03*
G04 #@! TD*
G04 #@! TO.C,TP145*
X152750000Y-120000000D03*
G04 #@! TD*
G04 #@! TO.C,TP91*
X142750000Y-147500000D03*
G04 #@! TD*
G04 #@! TO.C,TP22*
X175500000Y-115000000D03*
G04 #@! TD*
D11*
G04 #@! TO.C,TP126*
X173750000Y-70500000D03*
G04 #@! TD*
D10*
G04 #@! TO.C,TP197*
X192250000Y-137500000D03*
G04 #@! TD*
G04 #@! TO.C,TP29*
X184500000Y-96500000D03*
G04 #@! TD*
G04 #@! TO.C,TP69*
X177500000Y-90750000D03*
G04 #@! TD*
G04 #@! TO.C,TP160*
X183750000Y-120000000D03*
G04 #@! TD*
G04 #@! TO.C,TP210*
X182500000Y-130000000D03*
G04 #@! TD*
G04 #@! TO.C,TP128*
X204750000Y-100250000D03*
G04 #@! TD*
G04 #@! TO.C,TP203*
X166500000Y-137500000D03*
G04 #@! TD*
G04 #@! TO.C,TP156*
X175750000Y-120000000D03*
G04 #@! TD*
G04 #@! TO.C,TP66*
X114000000Y-93750000D03*
G04 #@! TD*
G04 #@! TO.C,TP180*
X185275000Y-57025000D03*
G04 #@! TD*
G04 #@! TO.C,TP138*
X137750000Y-120000000D03*
G04 #@! TD*
G04 #@! TO.C,TP130*
X204750000Y-95250000D03*
G04 #@! TD*
G04 #@! TO.C,TP40*
X173000000Y-113000000D03*
G04 #@! TD*
G04 #@! TO.C,TP142*
X145750000Y-120000000D03*
G04 #@! TD*
G04 #@! TO.C,TP107*
X174750000Y-147500000D03*
G04 #@! TD*
G04 #@! TO.C,TP123*
X187000000Y-82000000D03*
G04 #@! TD*
G04 #@! TO.C,TP64*
X125500000Y-87250000D03*
G04 #@! TD*
G04 #@! TO.C,TP99*
X158750000Y-147500000D03*
G04 #@! TD*
G04 #@! TO.C,TP195*
X173250000Y-137500000D03*
G04 #@! TD*
D15*
G04 #@! TO.C,RJ1*
X148630000Y-58710000D03*
X135930000Y-58710000D03*
D16*
X138710000Y-61240000D03*
X139730000Y-63040000D03*
X140750000Y-61240000D03*
X141770000Y-63040000D03*
X142790000Y-61240000D03*
X143810000Y-63040000D03*
X144830000Y-61240000D03*
X145850000Y-63040000D03*
D17*
X134150000Y-62210000D03*
X150350000Y-62210000D03*
D16*
X149140000Y-67760000D03*
X146850000Y-67760000D03*
X137710000Y-67760000D03*
X135420000Y-67760000D03*
G04 #@! TD*
D10*
G04 #@! TO.C,TP57*
X144287500Y-101000000D03*
G04 #@! TD*
G04 #@! TO.C,TP108*
X176750000Y-147500000D03*
G04 #@! TD*
G04 #@! TO.C,TP5*
X179250000Y-112250000D03*
G04 #@! TD*
G04 #@! TO.C,TP188*
X157250000Y-130000000D03*
G04 #@! TD*
G04 #@! TO.C,TP43*
X190500000Y-115000000D03*
G04 #@! TD*
G04 #@! TO.C,TP84*
X147000000Y-70000000D03*
G04 #@! TD*
G04 #@! TO.C,TP169*
X202750000Y-120000000D03*
G04 #@! TD*
G04 #@! TO.C,TP26*
X177500000Y-115000000D03*
G04 #@! TD*
G04 #@! TO.C,TP211*
X204500000Y-137500000D03*
G04 #@! TD*
G04 #@! TO.C,TP158*
X179750000Y-120000000D03*
G04 #@! TD*
G04 #@! TO.C,TP96*
X152750000Y-147500000D03*
G04 #@! TD*
G04 #@! TO.C,TP209*
X182500000Y-137500000D03*
G04 #@! TD*
G04 #@! TO.C,TP175*
X198000000Y-71050000D03*
G04 #@! TD*
D18*
G04 #@! TO.C,J3*
X207750000Y-102850000D03*
D19*
X207750000Y-100310000D03*
X207750000Y-97770000D03*
X207750000Y-95230000D03*
X207750000Y-92690000D03*
X207750000Y-90150000D03*
G04 #@! TD*
D10*
G04 #@! TO.C,TP72*
X162750000Y-83500000D03*
G04 #@! TD*
G04 #@! TO.C,TP139*
X139750000Y-120000000D03*
G04 #@! TD*
G04 #@! TO.C,TP186*
X195250000Y-137500000D03*
G04 #@! TD*
G04 #@! TO.C,TP132*
X204750000Y-90250000D03*
G04 #@! TD*
G04 #@! TO.C,TP70*
X161250000Y-85250000D03*
G04 #@! TD*
G04 #@! TO.C,TP190*
X195250000Y-130000000D03*
G04 #@! TD*
G04 #@! TO.C,TP200*
X147500000Y-130000000D03*
G04 #@! TD*
D20*
G04 #@! TO.C,USB1*
X199890000Y-61100000D03*
X194110000Y-61100000D03*
D21*
X201320000Y-61630000D03*
X192680000Y-61630000D03*
D22*
X201320000Y-57450000D03*
X192680000Y-57450000D03*
G04 #@! TD*
D10*
G04 #@! TO.C,TP13*
X181250000Y-109750000D03*
G04 #@! TD*
G04 #@! TO.C,TP39*
X185500000Y-101250000D03*
G04 #@! TD*
G04 #@! TO.C,TP206*
X163500000Y-130000000D03*
G04 #@! TD*
G04 #@! TO.C,TP179*
X206750000Y-66750000D03*
G04 #@! TD*
D11*
G04 #@! TO.C,TP153*
X154250000Y-117500000D03*
G04 #@! TD*
D10*
G04 #@! TO.C,TP78*
X164750000Y-94750000D03*
G04 #@! TD*
G04 #@! TO.C,TP18*
X176250000Y-113000000D03*
G04 #@! TD*
G04 #@! TO.C,TP165*
X194750000Y-120000000D03*
G04 #@! TD*
G04 #@! TO.C,TP150*
X162750000Y-120000000D03*
G04 #@! TD*
G04 #@! TO.C,TP76*
X139500000Y-115000000D03*
G04 #@! TD*
G04 #@! TO.C,TP36*
X154500000Y-115000000D03*
G04 #@! TD*
G04 #@! TO.C,TP74*
X135500000Y-115000000D03*
G04 #@! TD*
G04 #@! TO.C,TP35*
X189500000Y-106000000D03*
G04 #@! TD*
G04 #@! TO.C,TP173*
X201500000Y-67500000D03*
G04 #@! TD*
G04 #@! TO.C,TP63*
X144287500Y-103000000D03*
G04 #@! TD*
G04 #@! TO.C,TP61*
X144287500Y-108250000D03*
G04 #@! TD*
G04 #@! TO.C,TP16*
X165250000Y-110500000D03*
G04 #@! TD*
G04 #@! TO.C,TP137*
X135750000Y-120000000D03*
G04 #@! TD*
G04 #@! TO.C,TP50*
X178500000Y-92500000D03*
G04 #@! TD*
G04 #@! TO.C,TP183*
X138250000Y-137500000D03*
G04 #@! TD*
G04 #@! TO.C,TP141*
X143750000Y-120000000D03*
G04 #@! TD*
G04 #@! TO.C,TP23*
X191750000Y-108250000D03*
G04 #@! TD*
G04 #@! TO.C,TP129*
X204750000Y-97750000D03*
G04 #@! TD*
G04 #@! TO.C,TP133*
X193000000Y-86000000D03*
G04 #@! TD*
D11*
G04 #@! TO.C,TP162*
X173250000Y-117500000D03*
G04 #@! TD*
G04 #@! TO.C,TP127*
X178750000Y-84500000D03*
G04 #@! TD*
D10*
G04 #@! TO.C,TP12*
X200000000Y-107000000D03*
G04 #@! TD*
G04 #@! TO.C,TP42*
X183000000Y-112750000D03*
G04 #@! TD*
G04 #@! TO.C,TP10*
X181250000Y-111750000D03*
G04 #@! TD*
G04 #@! TO.C,TP196*
X173250000Y-130000000D03*
G04 #@! TD*
G04 #@! TO.C,TP101*
X162750000Y-147500000D03*
G04 #@! TD*
G04 #@! TO.C,TP44*
X194500000Y-115000000D03*
G04 #@! TD*
G04 #@! TO.C,TP170*
X204750000Y-120000000D03*
G04 #@! TD*
G04 #@! TO.C,TP93*
X146750000Y-147500000D03*
G04 #@! TD*
G04 #@! TO.C,TP143*
X147750000Y-120000000D03*
G04 #@! TD*
G04 #@! TO.C,TP151*
X164750000Y-120000000D03*
G04 #@! TD*
G04 #@! TO.C,TP159*
X181750000Y-120000000D03*
G04 #@! TD*
G04 #@! TO.C,TP2*
X206000000Y-107000000D03*
G04 #@! TD*
G04 #@! TO.C,TP104*
X168750000Y-147500000D03*
G04 #@! TD*
G04 #@! TO.C,TP215*
X180000000Y-48250000D03*
G04 #@! TD*
G04 #@! TO.C,TP164*
X192750000Y-120000000D03*
G04 #@! TD*
G04 #@! TO.C,TP189*
X176250000Y-130000000D03*
G04 #@! TD*
G04 #@! TO.C,TP37*
X191750000Y-106250000D03*
G04 #@! TD*
G04 #@! TO.C,TP32*
X152500000Y-115000000D03*
G04 #@! TD*
G04 #@! TO.C,TP7*
X202000000Y-107000000D03*
G04 #@! TD*
G04 #@! TO.C,TP176*
X196000000Y-71050000D03*
G04 #@! TD*
G04 #@! TO.C,TP122*
X165750000Y-57750000D03*
G04 #@! TD*
G04 #@! TO.C,TP119*
X198750000Y-147500000D03*
G04 #@! TD*
D11*
G04 #@! TO.C,TP182*
X204750000Y-102750000D03*
G04 #@! TD*
D10*
G04 #@! TO.C,TP54*
X181000000Y-94250000D03*
G04 #@! TD*
G04 #@! TO.C,TP102*
X164750000Y-147500000D03*
G04 #@! TD*
G04 #@! TO.C,TP120*
X200750000Y-147500000D03*
G04 #@! TD*
G04 #@! TO.C,TP208*
X185500000Y-130000000D03*
G04 #@! TD*
G04 #@! TO.C,TP30*
X123000000Y-90750000D03*
G04 #@! TD*
G04 #@! TO.C,TP59*
X144250000Y-110250000D03*
G04 #@! TD*
G04 #@! TO.C,TP148*
X158750000Y-120000000D03*
G04 #@! TD*
G04 #@! TO.C,TP88*
X152250000Y-58500000D03*
G04 #@! TD*
G04 #@! TO.C,U15*
X131200000Y-100050000D03*
X131200000Y-108050000D03*
G04 #@! TD*
G04 #@! TO.C,TP172*
X193000000Y-67500000D03*
G04 #@! TD*
G04 #@! TO.C,TP58*
X125000000Y-91500000D03*
G04 #@! TD*
G04 #@! TO.C,TP100*
X160750000Y-147500000D03*
G04 #@! TD*
G04 #@! TO.C,TP106*
X172750000Y-147500000D03*
G04 #@! TD*
G04 #@! TO.C,TP95*
X150750000Y-147500000D03*
G04 #@! TD*
G04 #@! TO.C,TP114*
X188750000Y-147500000D03*
G04 #@! TD*
G04 #@! TO.C,TP125*
X177750000Y-66500000D03*
G04 #@! TD*
G04 #@! TO.C,TP155*
X173750000Y-120000000D03*
G04 #@! TD*
G04 #@! TO.C,TP185*
X176250000Y-137500000D03*
G04 #@! TD*
G04 #@! TO.C,TP207*
X185500000Y-137500000D03*
G04 #@! TD*
G04 #@! TO.C,TP92*
X144750000Y-147500000D03*
G04 #@! TD*
G04 #@! TO.C,TP3*
X204000000Y-107000000D03*
G04 #@! TD*
G04 #@! TO.C,TP152*
X166750000Y-120000000D03*
G04 #@! TD*
G04 #@! TO.C,TP118*
X196750000Y-147500000D03*
G04 #@! TD*
G04 #@! TO.C,TP199*
X147500000Y-137500000D03*
G04 #@! TD*
G04 #@! TO.C,TP24*
X173500000Y-115000000D03*
G04 #@! TD*
D11*
G04 #@! TO.C,TP177*
X201500000Y-65500000D03*
G04 #@! TD*
D10*
G04 #@! TO.C,TP205*
X163500000Y-137500000D03*
G04 #@! TD*
G04 #@! TO.C,TP178*
X206750000Y-64500000D03*
G04 #@! TD*
G04 #@! TO.C,TP98*
X156750000Y-147500000D03*
G04 #@! TD*
G04 #@! TO.C,TP45*
X122500000Y-93750000D03*
G04 #@! TD*
D12*
G04 #@! TO.C,H4*
X206500000Y-145250000D03*
G04 #@! TD*
D10*
G04 #@! TO.C,TP34*
X156500000Y-115000000D03*
G04 #@! TD*
G04 #@! TO.C,TP85*
X144800000Y-70000000D03*
G04 #@! TD*
G04 #@! TO.C,TP140*
X141750000Y-120000000D03*
G04 #@! TD*
G04 #@! TO.C,TP174*
X201500000Y-69500000D03*
G04 #@! TD*
G04 #@! TO.C,TP51*
X161250000Y-102750000D03*
G04 #@! TD*
G04 #@! TO.C,TP147*
X156750000Y-120000000D03*
G04 #@! TD*
G04 #@! TO.C,TP27*
X196500000Y-115000000D03*
G04 #@! TD*
G04 #@! TO.C,TP97*
X154750000Y-147500000D03*
G04 #@! TD*
G04 #@! TO.C,TP53*
X160250000Y-105750000D03*
G04 #@! TD*
G04 #@! TO.C,TP111*
X182750000Y-147500000D03*
G04 #@! TD*
G04 #@! TO.C,TP55*
X144250000Y-106250000D03*
G04 #@! TD*
G04 #@! TO.C,TP105*
X170750000Y-147500000D03*
G04 #@! TD*
G04 #@! TO.C,TP168*
X200750000Y-120000000D03*
G04 #@! TD*
G04 #@! TO.C,TP67*
X144250000Y-97000000D03*
G04 #@! TD*
G04 #@! TO.C,TP154*
X171750000Y-120000000D03*
G04 #@! TD*
G04 #@! TO.C,TP124*
X175500000Y-90750000D03*
G04 #@! TD*
G04 #@! TO.C,TP82*
X140750000Y-70000000D03*
G04 #@! TD*
G04 #@! TO.C,TP198*
X192250000Y-130000000D03*
G04 #@! TD*
G04 #@! TO.C,TP193*
X154250000Y-137500000D03*
G04 #@! TD*
D12*
G04 #@! TO.C,H2*
X206500000Y-60000000D03*
G04 #@! TD*
D10*
G04 #@! TO.C,TP134*
X191250000Y-96500000D03*
G04 #@! TD*
G04 #@! TO.C,TP65*
X144287500Y-99000000D03*
G04 #@! TD*
G04 #@! TO.C,TP9*
X198000000Y-107000000D03*
G04 #@! TD*
G04 #@! TO.C,TP161*
X185750000Y-120000000D03*
G04 #@! TD*
G04 #@! TO.C,TP115*
X190750000Y-147500000D03*
G04 #@! TD*
G04 #@! TO.C,TP212*
X204500000Y-130000000D03*
G04 #@! TD*
G04 #@! TO.C,TP103*
X166750000Y-147500000D03*
G04 #@! TD*
G04 #@! TO.C,TP167*
X198750000Y-120000000D03*
G04 #@! TD*
G04 #@! TO.C,TP116*
X192750000Y-147500000D03*
G04 #@! TD*
D12*
G04 #@! TO.C,H3*
X133500000Y-145250000D03*
G04 #@! TD*
D10*
G04 #@! TO.C,TP202*
X144500000Y-130000000D03*
G04 #@! TD*
G04 #@! TO.C,TP204*
X166500000Y-130000000D03*
G04 #@! TD*
G04 #@! TO.C,TP38*
X158500000Y-115000000D03*
G04 #@! TD*
G04 #@! TO.C,TP187*
X138250000Y-130000000D03*
G04 #@! TD*
G04 #@! TO.C,TP149*
X160750000Y-120000000D03*
G04 #@! TD*
G04 #@! TO.C,TP121*
X202750000Y-147500000D03*
G04 #@! TD*
G04 #@! TO.C,TP33*
X189500000Y-108000000D03*
G04 #@! TD*
G04 #@! TO.C,TP166*
X196750000Y-120000000D03*
G04 #@! TD*
G04 #@! TO.C,TP146*
X154750000Y-120000000D03*
G04 #@! TD*
G04 #@! TO.C,TP109*
X178750000Y-147500000D03*
G04 #@! TD*
G04 #@! TO.C,TP192*
X135250000Y-130000000D03*
G04 #@! TD*
G04 #@! TO.C,TP184*
X157250000Y-137500000D03*
G04 #@! TD*
G04 #@! TO.C,TP77*
X164750000Y-88750000D03*
G04 #@! TD*
G04 #@! TO.C,TP48*
X182600000Y-95600000D03*
G04 #@! TD*
D23*
G04 #@! TO.C,J2*
X138500000Y-149750000D03*
X138500000Y-152250000D03*
X142000000Y-149750000D03*
X142000000Y-152250000D03*
X145500000Y-149750000D03*
X145500000Y-152250000D03*
X149000000Y-149750000D03*
X149000000Y-152250000D03*
X152500000Y-149750000D03*
X152500000Y-152250000D03*
X156000000Y-149750000D03*
X156000000Y-152250000D03*
X159500000Y-149750000D03*
X159500000Y-152250000D03*
X163000000Y-149750000D03*
X163000000Y-152250000D03*
X166500000Y-149750000D03*
X166500000Y-152250000D03*
X170000000Y-149750000D03*
X170000000Y-152250000D03*
X173500000Y-149750000D03*
X173500000Y-152250000D03*
X177000000Y-149750000D03*
X177000000Y-152250000D03*
X180500000Y-149750000D03*
X180500000Y-152250000D03*
X184000000Y-149750000D03*
X184000000Y-152250000D03*
X187500000Y-149750000D03*
X187500000Y-152250000D03*
X191000000Y-149750000D03*
X191000000Y-152250000D03*
X194500000Y-149750000D03*
X194500000Y-152250000D03*
X198000000Y-149750000D03*
X198000000Y-152250000D03*
X201500000Y-149750000D03*
X201500000Y-152250000D03*
G04 #@! TD*
D10*
G04 #@! TO.C,TP90*
X140750000Y-147500000D03*
G04 #@! TD*
G04 #@! TO.C,TP214*
X201500000Y-130000000D03*
G04 #@! TD*
G04 #@! TO.C,TP131*
X204750000Y-92750000D03*
G04 #@! TD*
G04 #@! TO.C,TP52*
X179500000Y-90500000D03*
G04 #@! TD*
G04 #@! TO.C,TP163*
X190750000Y-120000000D03*
G04 #@! TD*
G04 #@! TO.C,TP213*
X201500000Y-137500000D03*
G04 #@! TD*
D11*
G04 #@! TO.C,TP135*
X188500000Y-97000000D03*
G04 #@! TD*
G04 #@! TO.C,TP144*
X135250000Y-117500000D03*
G04 #@! TD*
D10*
G04 #@! TO.C,TP25*
X192500000Y-115000000D03*
G04 #@! TD*
G04 #@! TO.C,TP71*
X133500000Y-115000000D03*
G04 #@! TD*
G04 #@! TO.C,TP181*
X164000000Y-69000000D03*
G04 #@! TD*
G04 #@! TO.C,TP41*
X186500000Y-97000000D03*
G04 #@! TD*
G04 #@! TO.C,TP20*
X171500000Y-115000000D03*
G04 #@! TD*
G04 #@! TO.C,TP110*
X180750000Y-147500000D03*
G04 #@! TD*
G04 #@! TO.C,TP112*
X184750000Y-147500000D03*
G04 #@! TD*
G04 #@! TO.C,TP60*
X117500000Y-91000000D03*
G04 #@! TD*
D24*
G04 #@! TO.C,C203*
X142000000Y-140270000D03*
X142000000Y-141230000D03*
G04 #@! TD*
G04 #@! TO.C,C173*
X151750000Y-140270000D03*
X151750000Y-141230000D03*
G04 #@! TD*
D25*
G04 #@! TO.C,C204*
X142200000Y-127280000D03*
X142200000Y-126320000D03*
G04 #@! TD*
D24*
G04 #@! TO.C,C189*
X189750000Y-140270000D03*
X189750000Y-141230000D03*
G04 #@! TD*
D25*
G04 #@! TO.C,C149*
X140500000Y-127280000D03*
X140500000Y-126320000D03*
G04 #@! TD*
D24*
G04 #@! TO.C,C249*
X207000000Y-140270000D03*
X207000000Y-141230000D03*
G04 #@! TD*
G04 #@! TO.C,C181*
X170750000Y-140270000D03*
X170750000Y-141230000D03*
G04 #@! TD*
D25*
G04 #@! TO.C,C161*
X197500000Y-127280000D03*
X197500000Y-126320000D03*
G04 #@! TD*
D24*
G04 #@! TO.C,C141*
X178750000Y-140270000D03*
X178750000Y-141230000D03*
G04 #@! TD*
D25*
G04 #@! TO.C,C220*
X161200000Y-127280000D03*
X161200000Y-126320000D03*
G04 #@! TD*
D24*
G04 #@! TO.C,C235*
X180000000Y-140270000D03*
X180000000Y-141230000D03*
G04 #@! TD*
D25*
G04 #@! TO.C,C174*
X151900000Y-127230000D03*
X151900000Y-126270000D03*
G04 #@! TD*
D24*
G04 #@! TO.C,C201*
X150000000Y-140270000D03*
X150000000Y-141230000D03*
G04 #@! TD*
G04 #@! TO.C,C138*
X159750000Y-140270000D03*
X159750000Y-141230000D03*
G04 #@! TD*
D25*
G04 #@! TO.C,C250*
X207000000Y-127230000D03*
X207000000Y-126270000D03*
G04 #@! TD*
G04 #@! TO.C,C236*
X180200000Y-127280000D03*
X180200000Y-126320000D03*
G04 #@! TD*
G04 #@! TO.C,C157*
X178500000Y-127280000D03*
X178500000Y-126320000D03*
G04 #@! TD*
D24*
G04 #@! TO.C,C219*
X161000000Y-140270000D03*
X161000000Y-141230000D03*
G04 #@! TD*
D25*
G04 #@! TO.C,C153*
X159500000Y-127280000D03*
X159500000Y-126320000D03*
G04 #@! TD*
D24*
G04 #@! TO.C,C37*
X140750000Y-140270000D03*
X140750000Y-141230000D03*
G04 #@! TD*
D25*
G04 #@! TO.C,C190*
X189900000Y-127230000D03*
X189900000Y-126270000D03*
G04 #@! TD*
D24*
G04 #@! TO.C,C144*
X197750000Y-140270000D03*
X197750000Y-141230000D03*
G04 #@! TD*
D25*
G04 #@! TO.C,C218*
X169000000Y-127230000D03*
X169000000Y-126270000D03*
G04 #@! TD*
G04 #@! TO.C,C252*
X199200000Y-127280000D03*
X199200000Y-126320000D03*
G04 #@! TD*
G04 #@! TO.C,C182*
X170900000Y-127230000D03*
X170900000Y-126270000D03*
G04 #@! TD*
G04 #@! TO.C,C202*
X150000000Y-127230000D03*
X150000000Y-126270000D03*
G04 #@! TD*
D24*
G04 #@! TO.C,C217*
X169000000Y-140270000D03*
X169000000Y-141230000D03*
G04 #@! TD*
D25*
G04 #@! TO.C,C166*
X132900000Y-127230000D03*
X132900000Y-126270000D03*
G04 #@! TD*
D24*
G04 #@! TO.C,C251*
X199000000Y-140270000D03*
X199000000Y-141230000D03*
G04 #@! TD*
D25*
G04 #@! TO.C,C234*
X188000000Y-127230000D03*
X188000000Y-126270000D03*
G04 #@! TD*
D24*
G04 #@! TO.C,C233*
X188000000Y-140270000D03*
X188000000Y-141230000D03*
G04 #@! TD*
G04 #@! TO.C,C165*
X132750000Y-140270000D03*
X132750000Y-141230000D03*
G04 #@! TD*
M02*
