M48
; DRILL file KiCad 10.0.1 date 2026-09-01T23:03:54
; FORMAT={-:-/ absolute / metric / decimal}
; #@! TF.CreationDate,2026-09-01T23:03:54+02:00
; #@! TF.GenerationSoftware,Kicad,Pcbnew,10.0.1
; #@! TF.FileFunction,Plated,1,4,PTH
FMAT,2
METRIC
; #@! TA.AperFunction,Plated,PTH,ViaDrill
T1C0.150
; #@! TA.AperFunction,Plated,PTH,ComponentDrill
T2C0.500
; #@! TA.AperFunction,Plated,PTH,ComponentDrill
T3C0.600
; #@! TA.AperFunction,Plated,PTH,ComponentDrill
T4C0.650
; #@! TA.AperFunction,Plated,PTH,ComponentDrill
T5C0.700
; #@! TA.AperFunction,Plated,PTH,ComponentDrill
T6C1.000
; #@! TA.AperFunction,Plated,PTH,ComponentDrill
T7C1.000
; #@! TA.AperFunction,Plated,PTH,ComponentDrill
T8C1.400
; #@! TA.AperFunction,Plated,PTH,ComponentDrill
T9C3.000
%
G90
G05
T1
X132.25Y-140.75
X132.3Y-126.2
X132.4Y-127.8
X132.5Y-128.25
X132.5Y-130.25
X132.5Y-137.25
X132.5Y-139.25
X132.75Y-123.25
X132.75Y-125.5
X132.75Y-133.75
X132.75Y-141.75
X132.995Y-93.745
X133.25Y-126.75
X133.25Y-128.25
X133.25Y-129.25
X133.25Y-130.5
X133.25Y-138.25
X133.25Y-139.25
X133.5Y-127.75
X133.5Y-137.0
X133.5Y-140.0
X133.75Y-127.25
X134.0Y-139.5
X134.245Y-93.245
X134.25Y-127.75
X134.25Y-130.5
X134.5Y-137.0
X134.5Y-138.25
X134.5Y-140.0
X134.967Y-126.033
X135.0Y-123.25
X135.0Y-125.5
X135.0Y-127.5
X135.0Y-141.5
X135.25Y-131.0
X135.25Y-131.75
X135.25Y-132.5
X135.25Y-133.5
X135.25Y-134.0
X135.25Y-135.0
X135.25Y-135.75
X135.25Y-136.5
X135.25Y-140.0
X135.7Y-138.2
X135.75Y-127.5
X135.75Y-128.25
X135.75Y-129.0
X135.75Y-138.75
X135.75Y-139.5
X136.0Y-129.6
X136.0Y-133.0
X136.0Y-134.5
X136.0Y-142.25
X136.1Y-131.0
X136.1Y-131.75
X136.1Y-132.5
X136.1Y-135.25
X136.1Y-136.0
X136.1Y-136.75
X136.1Y-137.5
X136.5Y-125.5
X136.75Y-126.0
X136.75Y-127.25
X136.92Y-126.83
X137.4Y-131.0
X137.4Y-131.75
X137.4Y-132.5
X137.4Y-135.25
X137.4Y-136.0
X137.4Y-136.75
X137.4Y-137.5
X137.5Y-123.25
X137.5Y-129.6
X137.5Y-133.0
X137.5Y-134.5
X137.75Y-127.5
X137.75Y-128.25
X137.75Y-129.0
X137.75Y-138.75
X137.75Y-139.5
X137.8Y-138.2
X138.25Y-131.0
X138.25Y-131.75
X138.25Y-132.5
X138.25Y-132.5
X138.25Y-133.5
X138.25Y-134.0
X138.25Y-135.0
X138.25Y-135.0
X138.25Y-135.75
X138.25Y-136.5
X138.25Y-140.0
X138.485Y-126.235
X138.5Y-127.5
X138.5Y-141.5
X138.5Y-144.5
X138.5Y-145.5
X138.5Y-146.5
X139.0Y-137.0
X139.0Y-138.25
X139.0Y-140.0
X139.0Y-142.75
X139.25Y-127.75
X139.25Y-130.5
X139.5Y-139.5
X139.5Y-142.25
X139.75Y-123.25
X139.75Y-127.25
X140.0Y-125.5
X140.0Y-127.75
X140.0Y-137.0
X140.0Y-140.0
X140.25Y-128.25
X140.25Y-129.25
X140.25Y-130.5
X140.25Y-138.25
X140.25Y-139.25
X140.52Y-144.52
X140.52Y-145.52
X140.52Y-146.52
X140.75Y-125.5
X140.75Y-137.25
X140.75Y-138.25
X140.75Y-141.75
X141.0Y-128.25
X141.0Y-130.25
X141.0Y-142.76
X141.25Y-132.5
X141.25Y-135.0
X141.25Y-139.75
X141.4Y-125.5
X141.4Y-126.3
X141.5Y-140.75
X141.75Y-128.25
X141.75Y-130.25
X142.0Y-123.25
X142.0Y-125.5
X142.0Y-133.75
X142.0Y-137.25
X142.0Y-138.25
X142.0Y-141.75
X142.5Y-128.25
X142.5Y-129.25
X142.5Y-130.5
X142.5Y-138.25
X142.5Y-139.25
X142.52Y-144.52
X142.52Y-145.52
X142.52Y-146.52
X142.75Y-127.75
X142.75Y-137.0
X142.75Y-140.0
X143.0Y-127.25
X143.0Y-142.76
X143.25Y-139.5
X143.5Y-127.75
X143.5Y-130.5
X143.75Y-137.0
X143.75Y-138.25
X143.75Y-140.0
X144.0Y-88.0
X144.0Y-89.5
X144.217Y-126.033
X144.25Y-123.25
X144.25Y-125.5
X144.25Y-127.5
X144.25Y-141.5
X144.5Y-115.25
X144.5Y-131.0
X144.5Y-131.75
X144.5Y-132.5
X144.5Y-133.5
X144.5Y-134.0
X144.5Y-135.0
X144.5Y-135.0
X144.5Y-135.75
X144.5Y-136.5
X144.5Y-140.0
X144.52Y-144.52
X144.52Y-145.52
X144.52Y-146.52
X145.0Y-88.0
X145.0Y-89.5
X145.0Y-115.25
X145.0Y-127.5
X145.0Y-128.25
X145.0Y-129.0
X145.0Y-138.2
X145.0Y-138.75
X145.0Y-139.5
X145.0Y-142.76
X145.075Y-133.175
X145.25Y-134.5
X145.25Y-142.25
X145.3Y-129.5
X145.3Y-130.25
X145.3Y-131.0
X145.3Y-131.75
X145.3Y-132.5
X145.3Y-135.25
X145.3Y-136.0
X145.3Y-136.8
X145.4Y-137.5
X145.75Y-125.5
X146.0Y-88.0
X146.0Y-89.5
X146.0Y-126.0
X146.0Y-127.25
X146.25Y-73.5
X146.5Y-137.5
X146.52Y-144.52
X146.52Y-145.52
X146.52Y-146.52
X146.7Y-129.5
X146.7Y-130.25
X146.7Y-131.0
X146.7Y-131.75
X146.7Y-132.5
X146.7Y-135.25
X146.7Y-136.0
X146.7Y-136.75
X146.75Y-73.5
X146.75Y-123.25
X146.75Y-134.5
X146.925Y-133.175
X147.0Y-83.5
X147.0Y-84.5
X147.0Y-127.5
X147.0Y-128.25
X147.0Y-129.0
X147.0Y-138.2
X147.0Y-138.75
X147.0Y-139.5
X147.0Y-142.76
X147.001Y-92.631
X147.25Y-73.5
X147.5Y-131.0
X147.5Y-131.75
X147.5Y-132.5
X147.5Y-132.5
X147.5Y-133.5
X147.5Y-134.0
X147.5Y-135.0
X147.5Y-135.0
X147.5Y-135.75
X147.5Y-136.5
X147.5Y-140.0
X147.75Y-126.25
X147.75Y-127.5
X147.75Y-141.5
X148.25Y-137.0
X148.25Y-138.25
X148.25Y-140.0
X148.287Y-96.5
X148.287Y-99.25
X148.287Y-109.5
X148.5Y-127.75
X148.5Y-130.5
X148.52Y-144.52
X148.52Y-145.52
X148.52Y-146.52
X148.75Y-139.5
X148.75Y-142.25
X149.0Y-82.5
X149.0Y-123.25
X149.0Y-127.25
X149.0Y-142.76
X149.25Y-125.5
X149.25Y-137.0
X149.25Y-140.0
X149.498Y-127.497
X149.5Y-82.5
X149.5Y-126.75
X149.5Y-128.25
X149.5Y-129.25
X149.5Y-130.5
X149.5Y-138.25
X149.5Y-139.25
X149.75Y-115.0
X149.75Y-115.75
X149.75Y-116.75
X149.75Y-117.5
X149.75Y-118.25
X150.0Y-125.5
X150.0Y-137.25
X150.0Y-138.25
X150.0Y-141.75
X150.25Y-128.25
X150.25Y-130.25
X150.5Y-126.27
X150.5Y-126.75
X150.5Y-132.5
X150.5Y-135.0
X150.5Y-139.75
X150.52Y-144.52
X150.52Y-145.52
X150.52Y-146.52
X150.75Y-90.25
X151.0Y-142.76
X151.25Y-140.75
X151.3Y-126.2
X151.4Y-127.8
X151.5Y-128.25
X151.5Y-130.25
X151.5Y-137.25
X151.5Y-139.25
X151.75Y-123.25
X151.75Y-125.5
X151.75Y-133.75
X151.75Y-141.75
X152.0Y-90.5
X152.25Y-91.0
X152.25Y-126.75
X152.25Y-128.25
X152.25Y-129.25
X152.25Y-130.5
X152.25Y-138.25
X152.25Y-139.25
X152.5Y-127.75
X152.5Y-137.0
X152.5Y-140.0
X152.52Y-144.52
X152.52Y-145.52
X152.52Y-146.52
X152.75Y-127.25
X153.0Y-69.0
X153.0Y-139.5
X153.0Y-142.76
X153.25Y-127.75
X153.25Y-130.5
X153.5Y-69.0
X153.5Y-137.0
X153.5Y-138.25
X153.5Y-140.0
X153.967Y-126.033
X154.0Y-69.0
X154.0Y-123.25
X154.0Y-125.5
X154.0Y-127.5
X154.0Y-141.5
X154.25Y-64.0
X154.25Y-131.0
X154.25Y-131.75
X154.25Y-132.5
X154.25Y-133.5
X154.25Y-134.0
X154.25Y-135.0
X154.25Y-135.75
X154.25Y-136.5
X154.25Y-140.0
X154.5Y-63.75
X154.52Y-144.52
X154.52Y-145.52
X154.52Y-146.52
X154.7Y-138.2
X154.75Y-127.5
X154.75Y-128.25
X154.75Y-129.0
X154.75Y-138.75
X154.75Y-139.5
X154.99Y-60.5
X155.0Y-61.0
X155.0Y-129.6
X155.0Y-133.0
X155.0Y-134.5
X155.0Y-142.25
X155.0Y-142.76
X155.1Y-131.0
X155.1Y-131.75
X155.1Y-132.5
X155.1Y-135.25
X155.1Y-136.0
X155.1Y-136.75
X155.1Y-137.5
X155.5Y-57.6
X155.5Y-125.5
X155.75Y-126.0
X155.75Y-127.25
X155.92Y-126.83
X156.0Y-57.6
X156.4Y-131.0
X156.4Y-131.75
X156.4Y-132.5
X156.4Y-135.25
X156.4Y-136.0
X156.4Y-136.75
X156.4Y-137.5
X156.5Y-123.25
X156.5Y-129.6
X156.5Y-133.0
X156.5Y-134.5
X156.52Y-144.52
X156.52Y-145.52
X156.52Y-146.52
X156.75Y-127.5
X156.75Y-128.25
X156.75Y-129.0
X156.75Y-138.75
X156.75Y-139.5
X156.8Y-138.2
X157.0Y-142.76
X157.25Y-131.0
X157.25Y-131.75
X157.25Y-132.5
X157.25Y-132.5
X157.25Y-133.5
X157.25Y-134.0
X157.25Y-135.0
X157.25Y-135.0
X157.25Y-135.75
X157.25Y-136.5
X157.25Y-140.0
X157.485Y-126.235
X157.5Y-127.5
X157.5Y-141.5
X157.75Y-103.75
X158.0Y-137.0
X158.0Y-138.25
X158.0Y-140.0
X158.25Y-127.75
X158.25Y-130.5
X158.5Y-139.5
X158.5Y-142.25
X158.52Y-144.52
X158.52Y-145.52
X158.52Y-146.52
X158.75Y-123.25
X158.75Y-127.25
X159.0Y-125.5
X159.0Y-127.75
X159.0Y-137.0
X159.0Y-140.0
X159.0Y-142.76
X159.25Y-128.25
X159.25Y-129.25
X159.25Y-130.5
X159.25Y-138.25
X159.25Y-139.25
X159.75Y-125.5
X159.75Y-137.25
X159.75Y-138.25
X159.75Y-141.75
X160.0Y-128.25
X160.0Y-130.25
X160.25Y-98.75
X160.25Y-132.5
X160.25Y-135.0
X160.25Y-139.75
X160.4Y-125.5
X160.4Y-126.3
X160.5Y-140.75
X160.52Y-144.52
X160.52Y-145.52
X160.52Y-146.52
X160.75Y-128.25
X160.75Y-130.25
X161.0Y-123.25
X161.0Y-125.5
X161.0Y-133.75
X161.0Y-137.25
X161.0Y-138.25
X161.0Y-141.75
X161.0Y-142.76
X161.5Y-128.25
X161.5Y-129.25
X161.5Y-130.5
X161.5Y-138.25
X161.5Y-139.25
X161.75Y-127.75
X161.75Y-137.0
X161.75Y-140.0
X162.0Y-71.25
X162.0Y-71.75
X162.0Y-127.25
X162.25Y-139.5
X162.5Y-127.75
X162.5Y-130.5
X162.52Y-144.52
X162.52Y-145.52
X162.52Y-146.52
X162.75Y-137.0
X162.75Y-138.25
X162.75Y-140.0
X163.0Y-142.76
X163.217Y-126.033
X163.25Y-123.25
X163.25Y-125.5
X163.25Y-127.5
X163.25Y-141.5
X163.5Y-115.25
X163.5Y-131.0
X163.5Y-131.75
X163.5Y-132.5
X163.5Y-133.5
X163.5Y-134.0
X163.5Y-135.0
X163.5Y-135.0
X163.5Y-135.75
X163.5Y-136.5
X163.5Y-140.0
X164.0Y-115.25
X164.0Y-127.5
X164.0Y-128.25
X164.0Y-129.0
X164.0Y-138.2
X164.0Y-138.75
X164.0Y-139.5
X164.075Y-133.175
X164.15Y-102.775
X164.15Y-103.225
X164.25Y-134.5
X164.25Y-142.25
X164.3Y-129.5
X164.3Y-130.25
X164.3Y-131.0
X164.3Y-131.75
X164.3Y-132.5
X164.3Y-135.25
X164.3Y-136.0
X164.3Y-136.8
X164.4Y-137.5
X164.52Y-144.52
X164.52Y-145.52
X164.52Y-146.52
X164.75Y-125.5
X165.0Y-126.0
X165.0Y-127.25
X165.0Y-142.76
X165.5Y-137.5
X165.7Y-129.5
X165.7Y-130.25
X165.7Y-131.0
X165.7Y-131.75
X165.7Y-132.5
X165.7Y-135.25
X165.7Y-136.0
X165.7Y-136.75
X165.75Y-123.25
X165.75Y-134.5
X165.925Y-133.175
X166.0Y-127.5
X166.0Y-128.25
X166.0Y-129.0
X166.0Y-138.2
X166.0Y-138.75
X166.0Y-139.5
X166.25Y-71.25
X166.25Y-71.75
X166.393Y-96.091
X166.5Y-131.0
X166.5Y-131.75
X166.5Y-132.5
X166.5Y-132.5
X166.5Y-133.5
X166.5Y-134.0
X166.5Y-135.0
X166.5Y-135.0
X166.5Y-135.75
X166.5Y-136.5
X166.5Y-140.0
X166.52Y-144.52
X166.52Y-145.52
X166.52Y-146.52
X166.711Y-96.409
X166.75Y-126.25
X166.75Y-127.5
X166.75Y-141.5
X166.952Y-82.775
X166.952Y-83.225
X167.0Y-92.75
X167.0Y-93.5
X167.0Y-142.76
X167.25Y-137.0
X167.25Y-138.25
X167.25Y-140.0
X167.5Y-127.75
X167.5Y-130.5
X167.75Y-139.5
X167.75Y-142.25
X168.0Y-93.0
X168.0Y-123.25
X168.0Y-127.25
X168.25Y-125.5
X168.25Y-137.0
X168.25Y-140.0
X168.498Y-127.497
X168.5Y-92.0
X168.5Y-126.75
X168.5Y-128.25
X168.5Y-129.25
X168.5Y-130.5
X168.5Y-138.25
X168.5Y-139.25
X168.52Y-144.52
X168.52Y-145.52
X168.52Y-146.52
X168.75Y-115.0
X168.75Y-115.75
X168.75Y-116.75
X168.75Y-117.5
X168.75Y-118.25
X169.0Y-125.5
X169.0Y-137.25
X169.0Y-138.25
X169.0Y-141.75
X169.0Y-142.76
X169.25Y-128.25
X169.25Y-130.25
X169.5Y-100.5
X169.5Y-101.5
X169.5Y-102.5
X169.5Y-103.5
X169.5Y-104.5
X169.5Y-105.5
X169.5Y-111.75
X169.5Y-126.27
X169.5Y-126.75
X169.5Y-132.5
X169.5Y-135.0
X169.5Y-139.75
X169.75Y-113.0
X170.25Y-140.75
X170.3Y-126.2
X170.4Y-127.8
X170.5Y-106.0
X170.5Y-113.682
X170.5Y-128.25
X170.5Y-130.25
X170.5Y-137.25
X170.5Y-139.25
X170.52Y-144.52
X170.52Y-145.52
X170.52Y-146.52
X170.75Y-93.25
X170.75Y-123.25
X170.75Y-125.5
X170.75Y-133.75
X170.75Y-141.75
X170.763Y-111.987
X171.0Y-98.5
X171.0Y-112.25
X171.0Y-142.76
X171.25Y-126.75
X171.25Y-128.25
X171.25Y-129.25
X171.25Y-130.5
X171.25Y-138.25
X171.25Y-139.25
X171.5Y-96.25
X171.5Y-97.25
X171.5Y-114.0
X171.5Y-127.75
X171.5Y-137.0
X171.5Y-140.0
X171.75Y-113.5
X171.75Y-127.25
X172.0Y-96.75
X172.0Y-98.5
X172.0Y-106.0
X172.0Y-139.5
X172.25Y-127.75
X172.25Y-130.5
X172.5Y-95.75
X172.5Y-137.0
X172.5Y-138.25
X172.5Y-140.0
X172.52Y-144.52
X172.52Y-145.52
X172.52Y-146.52
X172.75Y-83.75
X172.75Y-84.25
X172.75Y-85.0
X172.75Y-85.5
X172.967Y-126.033
X173.0Y-98.5
X173.0Y-110.75
X173.0Y-123.25
X173.0Y-125.5
X173.0Y-127.5
X173.0Y-141.5
X173.0Y-142.76
X173.25Y-83.75
X173.25Y-84.25
X173.25Y-85.0
X173.25Y-85.5
X173.25Y-111.25
X173.25Y-111.75
X173.25Y-131.0
X173.25Y-131.75
X173.25Y-132.5
X173.25Y-133.5
X173.25Y-134.0
X173.25Y-135.0
X173.25Y-135.75
X173.25Y-136.5
X173.25Y-140.0
X173.5Y-106.0
X173.7Y-138.2
X173.75Y-83.75
X173.75Y-84.25
X173.75Y-85.0
X173.75Y-85.5
X173.75Y-127.5
X173.75Y-128.25
X173.75Y-129.0
X173.75Y-138.75
X173.75Y-139.5
X174.0Y-98.5
X174.0Y-129.6
X174.0Y-133.0
X174.0Y-134.5
X174.0Y-142.25
X174.1Y-131.0
X174.1Y-131.75
X174.1Y-132.5
X174.1Y-135.25
X174.1Y-136.0
X174.1Y-136.75
X174.1Y-137.5
X174.5Y-125.5
X174.52Y-144.52
X174.52Y-145.52
X174.52Y-146.52
X174.75Y-83.75
X174.75Y-84.25
X174.75Y-126.0
X174.75Y-127.25
X174.92Y-126.83
X175.0Y-98.5
X175.0Y-106.0
X175.0Y-108.75
X175.0Y-112.25
X175.0Y-142.76
X175.1Y-95.5
X175.25Y-83.75
X175.25Y-84.25
X175.4Y-131.0
X175.4Y-131.75
X175.4Y-132.5
X175.4Y-135.25
X175.4Y-136.0
X175.4Y-136.75
X175.4Y-137.5
X175.5Y-123.25
X175.5Y-129.6
X175.5Y-133.0
X175.5Y-134.5
X175.75Y-83.75
X175.75Y-84.25
X175.75Y-127.5
X175.75Y-128.25
X175.75Y-129.0
X175.75Y-138.75
X175.75Y-139.5
X175.8Y-138.2
X176.0Y-98.5
X176.0Y-106.0
X176.25Y-131.0
X176.25Y-131.75
X176.25Y-132.5
X176.25Y-132.5
X176.25Y-133.5
X176.25Y-134.0
X176.25Y-135.0
X176.25Y-135.0
X176.25Y-135.75
X176.25Y-136.5
X176.25Y-140.0
X176.485Y-126.235
X176.5Y-127.5
X176.5Y-141.5
X176.52Y-144.52
X176.52Y-145.52
X176.52Y-146.52
X176.75Y-83.75
X176.75Y-84.25
X177.0Y-99.5
X177.0Y-100.5
X177.0Y-101.5
X177.0Y-102.5
X177.0Y-103.5
X177.0Y-104.5
X177.0Y-105.5
X177.0Y-109.0
X177.0Y-137.0
X177.0Y-138.25
X177.0Y-140.0
X177.0Y-142.76
X177.25Y-83.75
X177.25Y-84.25
X177.25Y-127.75
X177.25Y-130.5
X177.5Y-139.5
X177.5Y-142.25
X177.75Y-83.75
X177.75Y-84.25
X177.75Y-123.25
X177.75Y-127.25
X178.0Y-125.5
X178.0Y-127.75
X178.0Y-137.0
X178.0Y-140.0
X178.25Y-128.25
X178.25Y-129.25
X178.25Y-130.5
X178.25Y-138.25
X178.25Y-139.25
X178.5Y-67.25
X178.5Y-108.5
X178.5Y-109.0
X178.52Y-144.52
X178.52Y-145.52
X178.52Y-146.52
X178.75Y-125.5
X178.75Y-137.25
X178.75Y-138.25
X178.75Y-141.75
X179.0Y-62.5
X179.0Y-128.25
X179.0Y-130.25
X179.0Y-142.76
X179.25Y-132.5
X179.25Y-135.0
X179.25Y-139.75
X179.4Y-125.5
X179.4Y-126.3
X179.5Y-140.75
X179.75Y-128.25
X179.75Y-130.25
X180.0Y-123.25
X180.0Y-125.5
X180.0Y-133.75
X180.0Y-137.25
X180.0Y-138.25
X180.0Y-141.75
X180.5Y-128.25
X180.5Y-129.25
X180.5Y-130.5
X180.5Y-138.25
X180.5Y-139.25
X180.52Y-144.52
X180.52Y-145.52
X180.52Y-146.52
X180.75Y-127.75
X180.75Y-137.0
X180.75Y-140.0
X181.0Y-127.25
X181.0Y-142.76
X181.25Y-139.5
X181.5Y-127.75
X181.5Y-130.5
X181.75Y-106.5
X181.75Y-107.0
X181.75Y-137.0
X181.75Y-138.25
X181.75Y-140.0
X182.217Y-126.033
X182.25Y-123.25
X182.25Y-125.5
X182.25Y-127.5
X182.25Y-141.5
X182.5Y-115.25
X182.5Y-131.0
X182.5Y-131.75
X182.5Y-132.5
X182.5Y-133.5
X182.5Y-134.0
X182.5Y-135.0
X182.5Y-135.0
X182.5Y-135.75
X182.5Y-136.5
X182.5Y-140.0
X182.52Y-144.52
X182.52Y-145.52
X182.52Y-146.52
X183.0Y-115.25
X183.0Y-127.5
X183.0Y-128.25
X183.0Y-129.0
X183.0Y-138.2
X183.0Y-138.75
X183.0Y-139.5
X183.0Y-142.76
X183.075Y-133.175
X183.25Y-134.5
X183.25Y-142.25
X183.3Y-129.5
X183.3Y-130.25
X183.3Y-131.0
X183.3Y-131.75
X183.3Y-132.5
X183.3Y-135.25
X183.3Y-136.0
X183.3Y-136.8
X183.4Y-137.5
X183.75Y-125.5
X184.0Y-126.0
X184.0Y-127.25
X184.5Y-58.25
X184.5Y-58.75
X184.5Y-59.25
X184.5Y-65.75
X184.5Y-66.25
X184.5Y-66.75
X184.5Y-137.5
X184.52Y-144.52
X184.52Y-145.52
X184.52Y-146.52
X184.7Y-129.5
X184.7Y-130.25
X184.7Y-131.0
X184.7Y-131.75
X184.7Y-132.5
X184.7Y-135.25
X184.7Y-136.0
X184.7Y-136.75
X184.75Y-123.25
X184.75Y-134.5
X184.925Y-133.175
X185.0Y-127.5
X185.0Y-128.25
X185.0Y-129.0
X185.0Y-138.2
X185.0Y-138.75
X185.0Y-139.5
X185.0Y-142.76
X185.25Y-58.25
X185.25Y-58.75
X185.25Y-59.25
X185.25Y-65.75
X185.25Y-66.25
X185.25Y-66.75
X185.5Y-131.0
X185.5Y-131.75
X185.5Y-132.5
X185.5Y-132.5
X185.5Y-133.5
X185.5Y-134.0
X185.5Y-135.0
X185.5Y-135.0
X185.5Y-135.75
X185.5Y-136.5
X185.5Y-140.0
X185.75Y-126.25
X185.75Y-127.5
X185.75Y-141.5
X186.25Y-137.0
X186.25Y-138.25
X186.25Y-140.0
X186.5Y-127.75
X186.5Y-130.5
X186.52Y-144.52
X186.52Y-145.52
X186.52Y-146.52
X186.75Y-139.5
X186.75Y-142.25
X187.0Y-123.25
X187.0Y-127.25
X187.0Y-142.76
X187.25Y-103.5
X187.25Y-125.5
X187.25Y-137.0
X187.25Y-140.0
X187.498Y-127.497
X187.5Y-102.0
X187.5Y-126.75
X187.5Y-128.25
X187.5Y-129.25
X187.5Y-130.5
X187.5Y-138.25
X187.5Y-139.25
X187.75Y-115.0
X187.75Y-115.75
X187.75Y-116.75
X187.75Y-117.5
X187.75Y-118.25
X188.0Y-125.5
X188.0Y-137.25
X188.0Y-138.25
X188.0Y-141.75
X188.2Y-95.0
X188.25Y-128.25
X188.25Y-130.25
X188.5Y-126.27
X188.5Y-126.75
X188.5Y-132.5
X188.5Y-135.0
X188.5Y-139.75
X188.52Y-144.52
X188.52Y-145.52
X188.52Y-146.52
X189.0Y-97.75
X189.0Y-100.25
X189.0Y-102.75
X189.0Y-142.76
X189.25Y-140.75
X189.3Y-126.2
X189.4Y-127.8
X189.5Y-97.75
X189.5Y-100.25
X189.5Y-102.75
X189.5Y-128.25
X189.5Y-130.25
X189.5Y-137.25
X189.5Y-139.25
X189.75Y-123.25
X189.75Y-125.5
X189.75Y-133.75
X189.75Y-141.75
X190.0Y-97.75
X190.0Y-100.25
X190.0Y-102.75
X190.25Y-126.75
X190.25Y-128.25
X190.25Y-129.25
X190.25Y-130.5
X190.25Y-138.25
X190.25Y-139.25
X190.5Y-127.75
X190.5Y-137.0
X190.5Y-140.0
X190.52Y-144.52
X190.52Y-145.52
X190.52Y-146.52
X190.75Y-127.25
X191.0Y-139.5
X191.0Y-142.76
X191.25Y-127.75
X191.25Y-130.5
X191.5Y-137.0
X191.5Y-138.25
X191.5Y-140.0
X191.967Y-126.033
X192.0Y-123.25
X192.0Y-125.5
X192.0Y-127.5
X192.0Y-141.5
X192.25Y-131.0
X192.25Y-131.75
X192.25Y-132.5
X192.25Y-133.5
X192.25Y-134.0
X192.25Y-135.0
X192.25Y-135.75
X192.25Y-136.5
X192.25Y-140.0
X192.5Y-89.75
X192.5Y-90.25
X192.5Y-90.75
X192.52Y-144.52
X192.52Y-145.52
X192.52Y-146.52
X192.7Y-138.2
X192.75Y-59.0
X192.75Y-59.5
X192.75Y-59.5
X192.75Y-60.0
X192.75Y-127.5
X192.75Y-128.25
X192.75Y-129.0
X192.75Y-138.75
X192.75Y-139.5
X193.0Y-89.75
X193.0Y-90.25
X193.0Y-90.75
X193.0Y-98.5
X193.0Y-99.0
X193.0Y-99.5
X193.0Y-101.0
X193.0Y-101.5
X193.0Y-102.0
X193.0Y-103.5
X193.0Y-104.0
X193.0Y-104.5
X193.0Y-129.6
X193.0Y-133.0
X193.0Y-134.5
X193.0Y-142.25
X193.0Y-142.76
X193.1Y-131.0
X193.1Y-131.75
X193.1Y-132.5
X193.1Y-135.25
X193.1Y-136.0
X193.1Y-136.75
X193.1Y-137.5
X193.5Y-89.75
X193.5Y-90.25
X193.5Y-90.75
X193.5Y-98.5
X193.5Y-99.0
X193.5Y-99.5
X193.5Y-101.0
X193.5Y-101.5
X193.5Y-102.0
X193.5Y-103.5
X193.5Y-104.0
X193.5Y-104.5
X193.5Y-125.5
X193.75Y-126.0
X193.75Y-127.25
X193.92Y-126.83
X194.0Y-98.5
X194.0Y-99.0
X194.0Y-99.5
X194.0Y-101.0
X194.0Y-101.5
X194.0Y-102.0
X194.0Y-103.5
X194.0Y-104.0
X194.0Y-104.5
X194.4Y-131.0
X194.4Y-131.75
X194.4Y-132.5
X194.4Y-135.25
X194.4Y-136.0
X194.4Y-136.75
X194.4Y-137.5
X194.5Y-57.5
X194.5Y-58.0
X194.5Y-58.5
X194.5Y-98.5
X194.5Y-99.0
X194.5Y-99.5
X194.5Y-101.0
X194.5Y-101.5
X194.5Y-102.0
X194.5Y-103.5
X194.5Y-104.0
X194.5Y-104.5
X194.5Y-123.25
X194.5Y-129.6
X194.5Y-133.0
X194.5Y-134.5
X194.52Y-144.52
X194.52Y-145.52
X194.52Y-146.52
X194.75Y-127.5
X194.75Y-128.25
X194.75Y-129.0
X194.75Y-138.75
X194.75Y-139.5
X194.8Y-138.2
X195.0Y-57.5
X195.0Y-58.0
X195.0Y-58.5
X195.0Y-98.5
X195.0Y-99.0
X195.0Y-99.5
X195.0Y-101.0
X195.0Y-101.5
X195.0Y-102.0
X195.0Y-103.5
X195.0Y-104.0
X195.0Y-104.5
X195.0Y-142.76
X195.25Y-131.0
X195.25Y-131.75
X195.25Y-132.5
X195.25Y-132.5
X195.25Y-133.5
X195.25Y-134.0
X195.25Y-135.0
X195.25Y-135.0
X195.25Y-135.75
X195.25Y-136.5
X195.25Y-140.0
X195.485Y-126.235
X195.5Y-57.5
X195.5Y-58.0
X195.5Y-58.5
X195.5Y-127.5
X195.5Y-141.5
X196.0Y-61.25
X196.0Y-137.0
X196.0Y-138.25
X196.0Y-140.0
X196.25Y-127.75
X196.25Y-130.5
X196.5Y-139.5
X196.5Y-142.25
X196.52Y-144.52
X196.52Y-145.52
X196.52Y-146.52
X196.75Y-123.25
X196.75Y-127.25
X196.775Y-74.5
X197.0Y-125.5
X197.0Y-127.75
X197.0Y-137.0
X197.0Y-140.0
X197.0Y-142.76
X197.225Y-74.5
X197.25Y-128.25
X197.25Y-129.25
X197.25Y-130.5
X197.25Y-138.25
X197.25Y-139.25
X197.75Y-125.5
X197.75Y-137.25
X197.75Y-138.25
X197.75Y-141.75
X198.0Y-128.25
X198.0Y-130.25
X198.25Y-132.5
X198.25Y-135.0
X198.25Y-139.75
X198.4Y-125.5
X198.4Y-126.3
X198.5Y-57.5
X198.5Y-58.0
X198.5Y-58.5
X198.5Y-61.5
X198.5Y-140.75
X198.52Y-144.52
X198.52Y-145.52
X198.52Y-146.52
X198.75Y-128.25
X198.75Y-130.25
X199.0Y-57.5
X199.0Y-58.0
X199.0Y-58.5
X199.0Y-123.25
X199.0Y-125.5
X199.0Y-133.75
X199.0Y-137.25
X199.0Y-138.25
X199.0Y-141.75
X199.0Y-142.76
X199.5Y-57.5
X199.5Y-58.0
X199.5Y-58.5
X199.5Y-128.25
X199.5Y-129.25
X199.5Y-130.5
X199.5Y-138.25
X199.5Y-139.25
X199.75Y-127.75
X199.75Y-137.0
X199.75Y-140.0
X200.0Y-127.25
X200.25Y-139.5
X200.5Y-127.75
X200.5Y-130.5
X200.52Y-144.52
X200.52Y-145.52
X200.52Y-146.52
X200.75Y-137.0
X200.75Y-138.25
X200.75Y-140.0
X201.0Y-142.76
X201.217Y-126.033
X201.25Y-59.0
X201.25Y-59.5
X201.25Y-60.0
X201.25Y-123.25
X201.25Y-125.5
X201.25Y-127.5
X201.25Y-141.5
X201.5Y-115.25
X201.5Y-131.0
X201.5Y-131.75
X201.5Y-132.5
X201.5Y-133.5
X201.5Y-134.0
X201.5Y-135.0
X201.5Y-135.0
X201.5Y-135.75
X201.5Y-136.5
X201.5Y-140.0
X202.0Y-115.25
X202.0Y-127.5
X202.0Y-128.25
X202.0Y-129.0
X202.0Y-138.2
X202.0Y-138.75
X202.0Y-139.5
X202.075Y-133.175
X202.25Y-134.5
X202.25Y-142.25
X202.3Y-129.5
X202.3Y-130.25
X202.3Y-131.0
X202.3Y-131.75
X202.3Y-132.5
X202.3Y-135.25
X202.3Y-136.0
X202.3Y-136.8
X202.4Y-137.5
X202.75Y-125.5
X203.0Y-126.0
X203.0Y-127.25
X203.5Y-137.5
X203.7Y-129.5
X203.7Y-130.25
X203.7Y-131.0
X203.7Y-131.75
X203.7Y-132.5
X203.7Y-135.25
X203.7Y-136.0
X203.7Y-136.75
X203.75Y-123.25
X203.75Y-134.5
X203.925Y-133.175
X204.0Y-127.5
X204.0Y-128.25
X204.0Y-129.0
X204.0Y-138.2
X204.0Y-138.75
X204.0Y-139.5
X204.5Y-131.0
X204.5Y-131.75
X204.5Y-132.5
X204.5Y-132.5
X204.5Y-133.5
X204.5Y-134.0
X204.5Y-135.0
X204.5Y-135.0
X204.5Y-135.75
X204.5Y-136.5
X204.5Y-140.0
X204.75Y-126.25
X204.75Y-127.5
X204.75Y-141.5
X205.25Y-137.0
X205.25Y-138.25
X205.25Y-140.0
X205.5Y-127.75
X205.5Y-130.5
X205.75Y-139.5
X205.75Y-142.25
X206.0Y-123.25
X206.0Y-127.25
X206.25Y-125.5
X206.25Y-137.0
X206.25Y-140.0
X206.498Y-127.497
X206.5Y-126.75
X206.5Y-128.25
X206.5Y-129.25
X206.5Y-130.5
X206.5Y-138.25
X206.5Y-139.25
X206.75Y-115.0
X206.75Y-115.75
X206.75Y-116.75
X206.75Y-117.5
X206.75Y-118.25
X207.0Y-125.5
X207.0Y-137.25
X207.0Y-138.25
X207.0Y-141.75
X207.25Y-128.25
X207.25Y-130.25
X207.5Y-126.27
X207.5Y-126.75
X207.5Y-132.5
X207.5Y-135.0
X207.5Y-139.75
T2
X114.0Y-93.75
X117.5Y-91.0
X119.75Y-94.25
X120.25Y-88.75
X122.5Y-93.75
X123.0Y-90.75
X125.0Y-91.5
X125.5Y-87.25
X125.75Y-94.0
X133.5Y-115.0
X133.75Y-120.0
X135.25Y-117.5
X135.25Y-130.0
X135.25Y-137.5
X135.5Y-115.0
X135.75Y-120.0
X137.5Y-115.0
X137.75Y-120.0
X138.25Y-130.0
X138.25Y-137.5
X139.5Y-115.0
X139.75Y-120.0
X140.75Y-70.0
X140.75Y-147.5
X141.75Y-120.0
X142.75Y-70.0
X142.75Y-147.5
X143.75Y-120.0
X144.25Y-97.0
X144.25Y-106.25
X144.25Y-110.25
X144.287Y-99.0
X144.287Y-101.0
X144.287Y-103.0
X144.287Y-108.25
X144.5Y-130.0
X144.5Y-137.5
X144.75Y-147.5
X144.8Y-70.0
X145.75Y-120.0
X146.75Y-147.5
X147.0Y-70.0
X147.5Y-130.0
X147.5Y-137.5
X147.75Y-120.0
X148.75Y-147.5
X149.5Y-70.0
X150.75Y-147.5
X152.25Y-58.5
X152.25Y-60.5
X152.5Y-115.0
X152.75Y-67.5
X152.75Y-120.0
X152.75Y-147.5
X154.25Y-117.5
X154.25Y-130.0
X154.25Y-137.5
X154.5Y-115.0
X154.75Y-120.0
X154.75Y-147.5
X156.5Y-115.0
X156.75Y-120.0
X156.75Y-147.5
X157.0Y-89.25
X157.25Y-130.0
X157.25Y-137.5
X158.5Y-115.0
X158.75Y-95.75
X158.75Y-120.0
X158.75Y-147.5
X160.25Y-105.75
X160.75Y-120.0
X160.75Y-147.5
X161.25Y-85.25
X161.25Y-102.75
X162.75Y-83.5
X162.75Y-93.5
X162.75Y-120.0
X162.75Y-147.5
X163.5Y-111.75
X163.5Y-130.0
X163.5Y-137.5
X164.0Y-69.0
X164.75Y-88.75
X164.75Y-94.75
X164.75Y-120.0
X164.75Y-147.5
X165.25Y-110.5
X165.75Y-57.75
X165.75Y-93.0
X166.5Y-87.75
X166.5Y-130.0
X166.5Y-137.5
X166.75Y-120.0
X166.75Y-147.5
X168.75Y-147.5
X170.75Y-147.5
X171.5Y-115.0
X171.75Y-120.0
X172.75Y-147.5
X173.0Y-113.0
X173.25Y-117.5
X173.25Y-130.0
X173.25Y-137.5
X173.5Y-115.0
X173.75Y-70.5
X173.75Y-120.0
X174.75Y-147.5
X175.5Y-90.75
X175.5Y-115.0
X175.75Y-120.0
X176.25Y-113.0
X176.25Y-130.0
X176.25Y-137.5
X176.75Y-147.5
X177.5Y-90.75
X177.5Y-115.0
X177.75Y-66.5
X177.75Y-120.0
X178.5Y-92.5
X178.75Y-84.5
X178.75Y-147.5
X179.25Y-112.25
X179.5Y-90.5
X179.75Y-120.0
X180.0Y-48.25
X180.5Y-92.3
X180.75Y-147.5
X181.0Y-94.25
X181.25Y-109.75
X181.25Y-111.75
X181.75Y-120.0
X182.5Y-130.0
X182.5Y-137.5
X182.6Y-95.6
X182.75Y-147.5
X183.0Y-112.75
X183.75Y-120.0
X184.5Y-96.5
X184.75Y-147.5
X185.275Y-57.025
X185.5Y-101.25
X185.5Y-130.0
X185.5Y-137.5
X185.75Y-120.0
X186.0Y-95.0
X186.5Y-97.0
X186.75Y-147.5
X187.0Y-82.0
X188.5Y-97.0
X188.75Y-147.5
X189.5Y-106.0
X189.5Y-108.0
X190.5Y-115.0
X190.75Y-120.0
X190.75Y-147.5
X191.25Y-96.5
X191.75Y-106.25
X191.75Y-108.25
X192.25Y-117.5
X192.25Y-130.0
X192.25Y-137.5
X192.5Y-115.0
X192.75Y-120.0
X192.75Y-147.5
X193.0Y-67.5
X193.0Y-86.0
X194.5Y-115.0
X194.75Y-120.0
X194.75Y-147.5
X195.25Y-130.0
X195.25Y-137.5
X196.0Y-71.05
X196.5Y-115.0
X196.75Y-120.0
X196.75Y-147.5
X198.0Y-71.05
X198.0Y-107.0
X198.75Y-120.0
X198.75Y-147.5
X200.0Y-107.0
X200.75Y-120.0
X200.75Y-147.5
X201.5Y-65.5
X201.5Y-67.5
X201.5Y-69.5
X201.5Y-130.0
X201.5Y-137.5
X202.0Y-107.0
X202.75Y-120.0
X202.75Y-147.5
X204.0Y-107.0
X204.5Y-130.0
X204.5Y-137.5
X204.75Y-90.25
X204.75Y-92.75
X204.75Y-95.25
X204.75Y-97.75
X204.75Y-100.25
X204.75Y-102.75
X204.75Y-120.0
X206.0Y-107.0
X206.75Y-64.5
X206.75Y-66.75
T4
X194.11Y-61.1
X199.89Y-61.1
T5
X200.25Y-109.98
X200.25Y-111.25
X201.52Y-109.98
X201.52Y-111.25
X202.79Y-109.98
X202.79Y-111.25
X204.06Y-109.98
X204.06Y-111.25
X205.33Y-109.98
X205.33Y-111.25
T6
X135.42Y-67.76
X137.71Y-67.76
X138.71Y-61.24
X139.73Y-63.04
X140.75Y-61.24
X141.77Y-63.04
X142.79Y-61.24
X143.81Y-63.04
X144.83Y-61.24
X145.85Y-63.04
X146.85Y-67.76
X149.14Y-67.76
T7
X131.2Y-100.05
X131.2Y-108.05
X207.75Y-90.15
X207.75Y-92.69
X207.75Y-95.23
X207.75Y-97.77
X207.75Y-100.31
X207.75Y-102.85
T8
X138.5Y-149.75
X138.5Y-152.25
X142.0Y-149.75
X142.0Y-152.25
X145.5Y-149.75
X145.5Y-152.25
X149.0Y-149.75
X149.0Y-152.25
X152.5Y-149.75
X152.5Y-152.25
X156.0Y-149.75
X156.0Y-152.25
X159.5Y-149.75
X159.5Y-152.25
X163.0Y-149.75
X163.0Y-152.25
X166.5Y-149.75
X166.5Y-152.25
X170.0Y-149.75
X170.0Y-152.25
X173.5Y-149.75
X173.5Y-152.25
X177.0Y-149.75
X177.0Y-152.25
X180.5Y-149.75
X180.5Y-152.25
X184.0Y-149.75
X184.0Y-152.25
X187.5Y-149.75
X187.5Y-152.25
X191.0Y-149.75
X191.0Y-152.25
X194.5Y-149.75
X194.5Y-152.25
X198.0Y-149.75
X198.0Y-152.25
X201.5Y-149.75
X201.5Y-152.25
T9
X135.93Y-58.71
X148.63Y-58.71
T3
G00X192.68Y-57.85
M15
G01X192.68Y-57.05
M16
G05
G00X192.68Y-62.18
M15
G01X192.68Y-61.08
M16
G05
G00X201.32Y-57.85
M15
G01X201.32Y-57.05
M16
G05
G00X201.32Y-62.18
M15
G01X201.32Y-61.08
M16
G05
T5
G00X134.15Y-62.71
M15
G01X134.15Y-61.71
M16
G05
G00X150.35Y-62.71
M15
G01X150.35Y-61.71
M16
G05
M30
